<svg width="815" height="678" viewBox="0 0 815 678" fill="none" xmlns="http://www.w3.org/2000/svg">
<path fill-rule="evenodd" clip-rule="evenodd" d="M170.796 650C137.954 650 72.2688 649.014 83.2162 662.014C94.1637 675.014 169 687 258 668C347 649 507.807 667.807 537 674C566.193 680.193 703.573 676 699.923 663C696.274 650 606.385 644 495.571 644C384.756 644 203.638 650 170.796 650Z" fill="#CD718E"/>
<path d="M332.999 210.5C332.999 209.267 332.999 208.033 332.999 206.8C333.033 205.567 333.033 204.333 332.999 203.1C332.999 202.733 332.983 202.267 332.949 201.7C332.916 201.133 332.899 200.667 332.899 200.3C332.899 199.6 333.033 199.183 333.299 199.05C333.599 198.883 334.116 198.8 334.849 198.8C335.616 198.8 336.499 198.983 337.499 199.35C338.499 199.683 339.316 200.05 339.949 200.45C340.916 201.05 341.716 201.8 342.349 202.7C343.016 203.6 343.549 204.583 343.949 205.65C344.383 206.717 344.683 207.833 344.849 209C345.016 210.133 345.116 211.233 345.149 212.3C345.149 213.567 344.999 214.667 344.699 215.6C344.399 216.5 344.033 217.3 343.599 218C343.166 218.667 342.716 219.267 342.249 219.8C341.783 220.333 341.366 220.833 340.999 221.3C340.966 221.367 341.333 221.517 342.099 221.75C342.899 221.95 343.766 222.333 344.699 222.9C345.666 223.433 346.549 224.2 347.349 225.2C348.183 226.2 348.583 227.483 348.549 229.05C348.549 230.117 348.283 230.983 347.749 231.65C347.216 232.317 346.516 232.85 345.649 233.25C344.783 233.65 343.816 233.95 342.749 234.15C341.683 234.35 340.616 234.483 339.549 234.55C338.483 234.583 337.466 234.6 336.499 234.6C335.566 234.567 334.783 234.55 334.149 234.55C333.649 234.55 333.366 234.417 333.299 234.15C333.266 233.85 333.233 233.5 333.199 233.1C333.133 232.633 333.099 232.167 333.099 231.7C333.099 231.233 333.099 230.767 333.099 230.3C333.099 227 333.083 223.733 333.049 220.5C333.016 217.267 332.999 214.017 332.999 210.75V210.5ZM344.599 228.3C344.566 227.567 344.266 226.983 343.699 226.55C343.166 226.117 342.533 225.783 341.799 225.55C341.066 225.317 340.316 225.167 339.549 225.1C338.783 225.033 338.199 225 337.799 225C337.399 225 337.166 225.117 337.099 225.35C337.033 225.55 336.999 225.8 336.999 226.1C336.999 226.733 336.983 227.35 336.949 227.95C336.916 228.55 336.899 229.15 336.899 229.75C336.899 230.117 336.966 230.417 337.099 230.65C337.233 230.85 337.516 230.95 337.949 230.95C339.916 230.95 341.516 230.767 342.749 230.4C343.983 230.033 344.599 229.333 344.599 228.3ZM339.149 205.3C339.083 205.2 338.899 205 338.599 204.7C338.333 204.4 338.033 204.133 337.699 203.9C337.399 203.633 337.116 203.483 336.849 203.45C336.616 203.417 336.499 203.617 336.499 204.05C336.499 206.45 336.549 208.983 336.649 211.65C336.749 214.317 336.799 216.85 336.799 219.25C336.799 219.35 336.833 219.45 336.899 219.55C336.933 219.55 336.966 219.567 336.999 219.6C337.066 219.6 337.116 219.6 337.149 219.6C338.349 219.2 339.233 218.383 339.799 217.15C340.366 215.917 340.699 214.55 340.799 213.05C340.933 211.55 340.833 210.083 340.499 208.65C340.199 207.217 339.749 206.1 339.149 205.3ZM363.245 234.1C362.678 235.1 361.961 235.85 361.095 236.35C360.228 236.85 359.278 237.2 358.245 237.4C357.245 237.633 356.195 237.767 355.095 237.8C354.028 237.833 352.995 237.883 351.995 237.95C351.928 237.117 351.878 236.3 351.845 235.5C351.811 234.7 351.795 233.883 351.795 233.05C351.795 230.783 351.878 228.533 352.045 226.3C352.211 224.033 352.328 221.75 352.395 219.45C352.461 216.983 352.495 214.533 352.495 212.1C352.528 209.633 352.545 207.167 352.545 204.7C352.545 203.667 352.528 202.633 352.495 201.6C352.461 200.567 352.445 199.533 352.445 198.5C352.445 197.933 352.461 197.45 352.495 197.05C352.528 196.65 352.628 196.333 352.795 196.1C352.995 195.867 353.261 195.7 353.595 195.6C353.961 195.5 354.461 195.45 355.095 195.45C355.895 195.45 356.378 195.633 356.545 196C356.711 196.367 356.795 196.883 356.795 197.55C356.795 198.683 356.728 199.8 356.595 200.9C356.461 202 356.345 203.1 356.245 204.2C356.111 206.733 355.961 209.25 355.795 211.75C355.661 214.25 355.595 216.767 355.595 219.3C355.595 219.733 355.628 220.167 355.695 220.6C355.761 221 355.961 221.35 356.295 221.65C356.661 221.983 357.211 222.233 357.945 222.4C358.711 222.567 359.345 222.817 359.845 223.15C360.411 223.55 360.945 224.05 361.445 224.65C361.978 225.25 362.428 225.9 362.795 226.6C363.195 227.3 363.511 228.033 363.745 228.8C363.978 229.533 364.095 230.25 364.095 230.95C364.095 232.083 363.811 233.133 363.245 234.1ZM370.795 231.9C370.861 232.4 370.928 232.917 370.995 233.45C371.095 233.95 371.145 234.45 371.145 234.95C371.145 235.117 371.128 235.333 371.095 235.6C371.061 235.867 371.078 236.067 371.145 236.2C371.078 236.367 370.895 236.483 370.595 236.55C370.328 236.65 370.028 236.717 369.695 236.75C369.361 236.817 369.028 236.85 368.695 236.85C368.395 236.883 368.178 236.9 368.045 236.9C367.445 236.9 367.111 236.817 367.045 236.65C367.011 236.483 366.961 236.15 366.895 235.65C366.861 235.283 366.828 234.933 366.795 234.6C366.761 234.233 366.745 233.867 366.745 233.5C366.745 232.633 366.761 231.767 366.795 230.9C366.861 230.033 366.895 229.167 366.895 228.3C366.895 223.1 366.878 217.933 366.845 212.8C366.811 207.667 366.761 202.517 366.695 197.35C366.828 197.35 367.078 197.35 367.445 197.35C367.811 197.35 368.195 197.367 368.595 197.4C368.995 197.4 369.361 197.433 369.695 197.5C370.028 197.567 370.228 197.65 370.295 197.75C370.361 197.883 370.395 198.05 370.395 198.25C370.395 198.45 370.395 198.617 370.395 198.75C370.395 200.017 370.361 201.283 370.295 202.55C370.261 203.783 370.245 205.033 370.245 206.3C370.245 209.267 370.278 212.217 370.345 215.15C370.445 218.083 370.511 221.033 370.545 224C370.578 225.333 370.595 226.65 370.595 227.95C370.595 229.25 370.661 230.567 370.795 231.9ZM355.945 225.35C355.578 225.45 355.345 225.7 355.245 226.1C355.178 226.467 355.145 226.8 355.145 227.1C355.145 227.7 355.178 228.3 355.245 228.9C355.345 229.467 355.395 230.033 355.395 230.6C355.395 230.8 355.378 231.067 355.345 231.4C355.345 231.733 355.345 232.067 355.345 232.4C355.378 232.733 355.445 233.033 355.545 233.3C355.678 233.533 355.895 233.65 356.195 233.65C356.661 233.65 357.128 233.533 357.595 233.3C358.061 233.033 358.461 232.7 358.795 232.3C359.161 231.867 359.445 231.417 359.645 230.95C359.878 230.45 359.995 229.967 359.995 229.5C359.995 229.067 359.878 228.6 359.645 228.1C359.411 227.6 359.111 227.15 358.745 226.75C358.411 226.35 358.011 226.017 357.545 225.75C357.111 225.483 356.661 225.35 356.195 225.35C356.161 225.35 356.111 225.35 356.045 225.35C356.011 225.35 355.978 225.35 355.945 225.35ZM380.971 235.75C379.938 235.483 379.105 234.883 378.471 233.95C377.871 233.017 377.405 231.967 377.071 230.8C376.771 229.6 376.571 228.383 376.471 227.15C376.371 225.917 376.321 224.85 376.321 223.95C376.321 222.45 376.471 221.183 376.771 220.15C377.105 219.117 377.605 218.283 378.271 217.65C378.938 217.017 379.788 216.567 380.821 216.3C381.888 216.033 383.171 215.9 384.671 215.9C385.238 215.9 385.738 215.933 386.171 216C385.938 215.4 385.505 214.9 384.871 214.5C384.238 214.067 383.521 213.65 382.721 213.25C381.921 212.85 381.088 212.45 380.221 212.05C379.355 211.617 378.555 211.083 377.821 210.45C377.088 209.817 376.488 209.067 376.021 208.2C375.555 207.3 375.321 206.2 375.321 204.9C375.321 204.2 375.505 203.533 375.871 202.9C376.238 202.267 376.655 201.7 377.121 201.2C377.855 200.433 378.771 199.8 379.871 199.3C380.971 198.8 382.121 198.417 383.321 198.15C384.555 197.883 385.788 197.7 387.021 197.6C388.255 197.5 389.388 197.45 390.421 197.45H391.321C391.388 197.583 391.421 197.75 391.421 197.95C391.421 198.183 391.388 198.5 391.321 198.9C391.288 199.267 391.238 199.65 391.171 200.05C391.138 200.417 391.071 200.783 390.971 201.15C390.905 201.517 390.838 201.817 390.771 202.05C390.738 202.083 390.705 202.15 390.671 202.25C390.638 202.35 390.605 202.4 390.571 202.4C390.038 202.4 389.505 202.367 388.971 202.3C388.471 202.2 387.971 202.15 387.471 202.15C387.005 202.15 386.371 202.2 385.571 202.3C384.771 202.367 383.971 202.517 383.171 202.75C382.371 202.95 381.688 203.25 381.121 203.65C380.555 204.05 380.271 204.567 380.271 205.2C380.271 206.067 380.671 206.8 381.471 207.4C382.305 207.967 383.238 208.6 384.271 209.3C385.338 210 386.371 210.867 387.371 211.9C388.371 212.933 389.071 214.3 389.471 216C389.705 217.2 389.871 218.417 389.971 219.65C390.071 220.883 390.121 222.117 390.121 223.35C390.121 224.717 390.038 226.15 389.871 227.65C389.738 229.117 389.405 230.467 388.871 231.7C388.338 232.933 387.555 233.95 386.521 234.75C385.488 235.55 384.088 235.95 382.321 235.95C381.821 235.95 381.371 235.883 380.971 235.75ZM383.021 234.7H383.071H383.021ZM381.321 220.65C381.121 221.617 380.971 222.6 380.871 223.6C380.771 224.567 380.721 225.55 380.721 226.55C380.721 226.983 380.721 227.533 380.721 228.2C380.721 228.867 380.771 229.533 380.871 230.2C381.005 230.833 381.205 231.4 381.471 231.9C381.771 232.4 382.205 232.683 382.771 232.75C383.305 232.55 383.771 232.3 384.171 232C384.438 231.533 384.671 230.917 384.871 230.15C385.105 229.35 385.288 228.517 385.421 227.65C385.588 226.783 385.705 225.933 385.771 225.1C385.838 224.267 385.871 223.583 385.871 223.05C385.871 221.683 385.755 220.383 385.521 219.15C384.755 219.217 384.005 219.367 383.271 219.6C382.571 219.833 381.921 220.183 381.321 220.65ZM407.138 233.25C405.038 233.25 403.288 232.7 401.888 231.6C400.488 230.467 399.371 229.067 398.538 227.4C397.704 225.7 397.104 223.883 396.738 221.95C396.404 219.983 396.238 218.167 396.238 216.5C396.238 214.667 396.421 212.85 396.788 211.05C397.188 209.217 397.838 207.567 398.738 206.1C399.638 204.633 400.821 203.45 402.287 202.55C403.754 201.617 405.554 201.15 407.688 201.15C409.888 201.15 411.671 201.733 413.038 202.9C414.404 204.033 415.471 205.45 416.238 207.15C417.038 208.85 417.571 210.7 417.838 212.7C418.138 214.7 418.288 216.55 418.288 218.25C418.288 219.983 418.088 221.75 417.688 223.55C417.288 225.317 416.638 226.917 415.738 228.35C414.871 229.783 413.721 230.967 412.288 231.9C410.888 232.8 409.171 233.25 407.138 233.25ZM407.688 204.85C406.121 204.85 404.838 205.167 403.838 205.8C402.838 206.4 402.054 207.217 401.488 208.25C400.921 209.25 400.521 210.4 400.288 211.7C400.088 212.967 399.988 214.25 399.988 215.55C399.988 216.65 400.038 217.7 400.138 218.7C400.238 219.567 400.438 220.633 400.738 221.9C401.071 223.133 401.521 224.333 402.088 225.5C402.688 226.633 403.404 227.6 404.238 228.4C405.071 229.2 406.038 229.6 407.138 229.6C408.571 229.6 409.754 229.15 410.688 228.25C411.654 227.317 412.421 226.183 412.988 224.85C413.554 223.517 413.954 222.117 414.188 220.65C414.421 219.183 414.538 217.9 414.538 216.8C414.538 215.8 414.421 214.617 414.188 213.25C413.988 211.85 413.621 210.533 413.088 209.3C412.554 208.067 411.838 207.017 410.938 206.15C410.071 205.283 408.988 204.85 407.688 204.85ZM422.159 197.65C423.059 197.683 424.043 197.7 425.109 197.7C426.209 197.7 427.276 197.8 428.309 198C429.343 198.167 430.309 198.467 431.209 198.9C432.109 199.3 432.859 199.933 433.459 200.8C434.026 201.667 434.309 202.583 434.309 203.55C434.309 204.183 434.193 204.833 433.959 205.5C433.726 206.133 433.409 206.75 433.009 207.35C432.643 207.917 432.209 208.45 431.709 208.95C431.209 209.417 430.693 209.817 430.159 210.15C429.659 210.45 429.026 210.683 428.259 210.85C427.526 210.983 426.993 211.183 426.659 211.45C426.359 211.683 426.159 211.983 426.059 212.35C425.993 212.683 425.959 213.033 425.959 213.4C425.959 213.867 425.993 214.333 426.059 214.8C426.126 215.267 426.159 215.733 426.159 216.2C426.159 218.2 426.226 220.2 426.359 222.2C426.526 224.2 426.676 226.217 426.809 228.25C426.909 229.15 427.043 230.05 427.209 230.95C427.376 231.85 427.459 232.767 427.459 233.7C427.459 234.467 427.376 235 427.209 235.3C427.043 235.6 426.543 235.75 425.709 235.75C425.076 235.75 424.576 235.7 424.209 235.6C423.843 235.5 423.576 235.333 423.409 235.1C423.243 234.867 423.143 234.567 423.109 234.2C423.076 233.8 423.059 233.317 423.059 232.75C423.059 229.483 423.043 226.25 423.009 223.05C423.009 219.85 422.926 216.617 422.759 213.35C422.659 211.317 422.493 209.3 422.259 207.3C422.059 205.267 421.959 203.233 421.959 201.2C421.959 199.9 422.026 198.717 422.159 197.65ZM429.959 205.95C430.126 205.583 430.209 205.2 430.209 204.8C430.209 204.333 430.093 203.9 429.859 203.5C429.626 203.067 429.326 202.683 428.959 202.35C428.593 202.017 428.176 201.75 427.709 201.55C427.276 201.35 426.843 201.25 426.409 201.25C426.043 201.25 425.809 201.383 425.709 201.65C425.643 201.883 425.609 202.133 425.609 202.4C425.609 202.733 425.609 203.067 425.609 203.4C425.643 203.7 425.643 204.017 425.609 204.35C425.609 204.75 425.576 205.15 425.509 205.55C425.443 205.95 425.409 206.35 425.409 206.75C425.409 207.117 425.476 207.483 425.609 207.85C425.743 208.183 426.043 208.35 426.509 208.35C426.776 208.35 427.076 208.267 427.409 208.1C427.776 207.933 428.126 207.733 428.459 207.5C428.826 207.267 429.143 207.017 429.409 206.75C429.676 206.483 429.859 206.217 429.959 205.95ZM449.524 234.1C448.957 235.1 448.24 235.85 447.374 236.35C446.507 236.85 445.557 237.2 444.524 237.4C443.524 237.633 442.474 237.767 441.374 237.8C440.307 237.833 439.274 237.883 438.274 237.95C438.207 237.117 438.157 236.3 438.124 235.5C438.09 234.7 438.074 233.883 438.074 233.05C438.074 230.783 438.157 228.533 438.324 226.3C438.49 224.033 438.607 221.75 438.674 219.45C438.74 216.983 438.774 214.533 438.774 212.1C438.807 209.633 438.824 207.167 438.824 204.7C438.824 203.667 438.807 202.633 438.774 201.6C438.74 200.567 438.724 199.533 438.724 198.5C438.724 197.933 438.74 197.45 438.774 197.05C438.807 196.65 438.907 196.333 439.074 196.1C439.274 195.867 439.54 195.7 439.874 195.6C440.24 195.5 440.74 195.45 441.374 195.45C442.174 195.45 442.657 195.633 442.824 196C442.99 196.367 443.074 196.883 443.074 197.55C443.074 198.683 443.007 199.8 442.874 200.9C442.74 202 442.624 203.1 442.524 204.2C442.39 206.733 442.24 209.25 442.074 211.75C441.94 214.25 441.874 216.767 441.874 219.3C441.874 219.733 441.907 220.167 441.974 220.6C442.04 221 442.24 221.35 442.574 221.65C442.94 221.983 443.49 222.233 444.224 222.4C444.99 222.567 445.624 222.817 446.124 223.15C446.69 223.55 447.224 224.05 447.724 224.65C448.257 225.25 448.707 225.9 449.074 226.6C449.474 227.3 449.79 228.033 450.024 228.8C450.257 229.533 450.374 230.25 450.374 230.95C450.374 232.083 450.09 233.133 449.524 234.1ZM457.074 231.9C457.14 232.4 457.207 232.917 457.274 233.45C457.374 233.95 457.424 234.45 457.424 234.95C457.424 235.117 457.407 235.333 457.374 235.6C457.34 235.867 457.357 236.067 457.424 236.2C457.357 236.367 457.174 236.483 456.874 236.55C456.607 236.65 456.307 236.717 455.974 236.75C455.64 236.817 455.307 236.85 454.974 236.85C454.674 236.883 454.457 236.9 454.324 236.9C453.724 236.9 453.39 236.817 453.324 236.65C453.29 236.483 453.24 236.15 453.174 235.65C453.14 235.283 453.107 234.933 453.074 234.6C453.04 234.233 453.024 233.867 453.024 233.5C453.024 232.633 453.04 231.767 453.074 230.9C453.14 230.033 453.174 229.167 453.174 228.3C453.174 223.1 453.157 217.933 453.124 212.8C453.09 207.667 453.04 202.517 452.974 197.35C453.107 197.35 453.357 197.35 453.724 197.35C454.09 197.35 454.474 197.367 454.874 197.4C455.274 197.4 455.64 197.433 455.974 197.5C456.307 197.567 456.507 197.65 456.574 197.75C456.64 197.883 456.674 198.05 456.674 198.25C456.674 198.45 456.674 198.617 456.674 198.75C456.674 200.017 456.64 201.283 456.574 202.55C456.54 203.783 456.524 205.033 456.524 206.3C456.524 209.267 456.557 212.217 456.624 215.15C456.724 218.083 456.79 221.033 456.824 224C456.857 225.333 456.874 226.65 456.874 227.95C456.874 229.25 456.94 230.567 457.074 231.9ZM442.224 225.35C441.857 225.45 441.624 225.7 441.524 226.1C441.457 226.467 441.424 226.8 441.424 227.1C441.424 227.7 441.457 228.3 441.524 228.9C441.624 229.467 441.674 230.033 441.674 230.6C441.674 230.8 441.657 231.067 441.624 231.4C441.624 231.733 441.624 232.067 441.624 232.4C441.657 232.733 441.724 233.033 441.824 233.3C441.957 233.533 442.174 233.65 442.474 233.65C442.94 233.65 443.407 233.533 443.874 233.3C444.34 233.033 444.74 232.7 445.074 232.3C445.44 231.867 445.724 231.417 445.924 230.95C446.157 230.45 446.274 229.967 446.274 229.5C446.274 229.067 446.157 228.6 445.924 228.1C445.69 227.6 445.39 227.15 445.024 226.75C444.69 226.35 444.29 226.017 443.824 225.75C443.39 225.483 442.94 225.35 442.474 225.35C442.44 225.35 442.39 225.35 442.324 225.35C442.29 225.35 442.257 225.35 442.224 225.35Z" fill="#7F4156"/>
<path d="M319.691 227.5H467" stroke="#7F4156" stroke-width="4" stroke-linecap="square"/>
<path d="M297.971 259.1C298.071 259.733 298.137 260.367 298.171 261C298.204 261.633 298.221 262.267 298.221 262.9C298.221 264.567 298.137 266.217 297.971 267.85C297.837 269.483 297.771 271.133 297.771 272.8C297.771 274.233 297.837 275.667 297.971 277.1C298.104 278.533 298.171 279.967 298.171 281.4C298.171 282.8 298.121 284.183 298.021 285.55C297.954 286.917 297.921 288.3 297.921 289.7C297.921 290.733 297.937 291.767 297.971 292.8C298.037 293.833 298.071 294.867 298.071 295.9C298.071 296.167 298.071 296.483 298.071 296.85C298.104 297.183 298.087 297.517 298.021 297.85C297.954 298.183 297.821 298.45 297.621 298.65C297.454 298.883 297.187 299 296.821 299C296.621 299 296.421 298.967 296.221 298.9C296.021 298.867 295.821 298.833 295.621 298.8C295.154 298.667 294.804 298.55 294.571 298.45C294.371 298.383 294.271 298.017 294.271 297.35C294.271 296.817 294.304 296.283 294.371 295.75C294.471 295.217 294.521 294.683 294.521 294.15C294.521 293.15 294.487 292.167 294.421 291.2C294.354 290.2 294.321 289.217 294.321 288.25C294.287 284.583 294.237 280.95 294.171 277.35C294.104 273.75 294.071 270.117 294.071 266.45C294.071 265.817 294.071 265.183 294.071 264.55C294.104 263.883 294.121 263.217 294.121 262.55C294.121 262.183 294.071 261.9 293.971 261.7C293.904 261.467 293.654 261.35 293.221 261.35C291.921 261.35 290.637 261.483 289.371 261.75C288.104 261.983 286.804 262.1 285.471 262.1V263.95C285.471 265.017 285.487 266.067 285.521 267.1C285.587 270.3 285.637 273.483 285.671 276.65C285.704 279.817 285.754 283.017 285.821 286.25C285.821 287.683 285.804 289.15 285.771 290.65C285.771 292.15 285.854 293.633 286.021 295.1C286.087 295.6 286.154 296.117 286.221 296.65C286.321 297.15 286.371 297.667 286.371 298.2C286.371 298.333 286.354 298.533 286.321 298.8C286.287 299.1 286.304 299.317 286.371 299.45C286.304 299.583 286.121 299.683 285.821 299.75C285.554 299.85 285.237 299.917 284.871 299.95C284.537 300.017 284.204 300.05 283.871 300.05C283.571 300.083 283.354 300.1 283.221 300.1H283.021C282.754 300.033 282.554 299.983 282.421 299.95C282.321 299.917 282.254 299.867 282.221 299.8C282.187 299.733 282.171 299.617 282.171 299.45C282.171 299.317 282.154 299.117 282.121 298.85C282.021 298.083 281.971 297.367 281.971 296.7C281.971 295.833 281.987 294.967 282.021 294.1C282.087 293.233 282.121 292.367 282.121 291.5C282.121 286.1 282.087 280.75 282.021 275.45C281.987 270.117 281.971 264.767 281.971 259.4C281.971 258.767 282.171 258.25 282.571 257.85C282.971 257.45 283.487 257.25 284.121 257.25C285.921 257.25 287.704 257.333 289.471 257.5C291.237 257.633 293.021 257.7 294.821 257.7C295.187 257.7 295.537 257.683 295.871 257.65C296.237 257.583 296.554 257.583 296.821 257.65C297.121 257.683 297.354 257.817 297.521 258.05C297.721 258.25 297.871 258.6 297.971 259.1ZM317.41 263.1C317.543 265.267 317.726 267.433 317.96 269.6C318.193 271.733 318.31 273.9 318.31 276.1C318.31 277.533 318.26 278.967 318.16 280.4C318.093 281.833 318.01 283.267 317.91 284.7C317.843 285.833 317.726 287.25 317.56 288.95C317.426 290.65 317.11 292.3 316.61 293.9C316.143 295.467 315.46 296.833 314.56 298C313.66 299.133 312.41 299.7 310.81 299.7C308.676 299.7 307.043 299.033 305.91 297.7C304.81 296.367 304.26 294.683 304.26 292.65C304.26 292.083 304.276 291.517 304.31 290.95C304.376 290.35 304.493 289.817 304.66 289.35C304.86 288.85 305.16 288.45 305.56 288.15C305.993 287.85 306.593 287.7 307.36 287.7C307.46 287.7 307.56 287.75 307.66 287.85C307.793 287.917 307.86 288.017 307.86 288.15C307.86 288.383 307.793 288.6 307.66 288.8C307.56 289 307.51 289.217 307.51 289.45C307.51 289.85 307.543 290.433 307.61 291.2C307.676 291.967 307.81 292.75 308.01 293.55C308.21 294.317 308.476 294.983 308.81 295.55C309.143 296.117 309.576 296.4 310.11 296.4C310.41 296.4 310.676 296.333 310.91 296.2C311.176 296.033 311.41 295.85 311.61 295.65C312.01 295.283 312.31 294.85 312.51 294.35C312.743 293.817 312.91 293.267 313.01 292.7C313.11 292.1 313.176 291.5 313.21 290.9C313.276 290.3 313.343 289.75 313.41 289.25C313.543 287.917 313.643 286.583 313.71 285.25C313.776 283.917 313.826 282.567 313.86 281.2C313.926 279.467 313.993 277.733 314.06 276C314.16 274.267 314.21 272.517 314.21 270.75C314.21 270.483 314.193 270.167 314.16 269.8C314.16 269.433 314.076 269.117 313.91 268.85C313.576 269.717 313.076 270.533 312.41 271.3C311.776 272.067 310.943 272.45 309.91 272.45C308.476 272.45 307.326 272 306.46 271.1C305.593 270.2 304.91 269.1 304.41 267.8C303.943 266.5 303.626 265.133 303.46 263.7C303.293 262.267 303.21 261.017 303.21 259.95C303.21 259.183 303.443 258.617 303.91 258.25C304.41 257.883 305.026 257.7 305.76 257.7C306.126 257.7 306.41 257.8 306.61 258C306.843 258.167 307.01 258.383 307.11 258.65C307.21 258.917 307.276 259.217 307.31 259.55C307.343 259.85 307.36 260.15 307.36 260.45C307.36 261.283 307.326 262.117 307.26 262.95C307.226 263.783 307.276 264.617 307.41 265.45C307.476 265.783 307.576 266.167 307.71 266.6C307.876 267.033 308.076 267.45 308.31 267.85C308.543 268.217 308.81 268.533 309.11 268.8C309.443 269.067 309.81 269.2 310.21 269.2C310.81 269.2 311.293 268.983 311.66 268.55C312.026 268.117 312.31 267.6 312.51 267C312.743 266.367 312.893 265.733 312.96 265.1C313.06 264.433 313.11 263.883 313.11 263.45C313.11 262.783 313.026 262.133 312.86 261.5C312.726 260.867 312.66 260.217 312.66 259.55C312.66 258.983 312.893 258.65 313.36 258.55C313.86 258.417 314.326 258.35 314.76 258.35C315.226 258.35 315.626 258.367 315.96 258.4C316.326 258.4 316.61 258.467 316.81 258.6C317.043 258.7 317.21 258.9 317.31 259.2C317.41 259.467 317.46 259.883 317.46 260.45C317.46 260.883 317.443 261.333 317.41 261.8C317.376 262.233 317.376 262.667 317.41 263.1ZM325.248 260.4C325.115 260.367 324.898 260.35 324.598 260.35C324.331 260.317 324.048 260.283 323.748 260.25C323.448 260.183 323.165 260.117 322.898 260.05C322.665 259.983 322.498 259.9 322.398 259.8C322.365 259.6 322.348 259.417 322.348 259.25C322.348 258.683 322.348 258.217 322.348 257.85C322.381 257.483 322.465 257.2 322.598 257C322.765 256.767 322.998 256.617 323.298 256.55C323.631 256.45 324.115 256.4 324.748 256.4C325.481 256.4 326.215 256.45 326.948 256.55C327.681 256.617 328.415 256.65 329.148 256.65C329.681 256.65 330.215 256.617 330.748 256.55C331.315 256.45 331.865 256.4 332.398 256.4C332.798 256.4 333.231 256.45 333.698 256.55C334.198 256.617 334.448 256.917 334.448 257.45C334.448 257.783 334.465 258.133 334.498 258.5C334.531 258.833 334.548 259.167 334.548 259.5C334.548 259.9 334.348 260.117 333.948 260.15C333.548 260.183 333.098 260.217 332.598 260.25C332.131 260.25 331.681 260.333 331.248 260.5C330.848 260.633 330.648 260.983 330.648 261.55C330.648 261.85 330.665 262.133 330.698 262.4C330.731 262.667 330.748 262.933 330.748 263.2C330.881 266.133 330.965 269.05 330.998 271.95C331.031 274.85 331.048 277.767 331.048 280.7C331.081 283.733 331.098 286.75 331.098 289.75C331.098 292.75 331.198 295.767 331.398 298.8C331.398 298.967 331.398 299.15 331.398 299.35C331.431 299.55 331.448 299.733 331.448 299.9C331.448 300.133 331.415 300.367 331.348 300.6C331.281 300.833 331.098 300.95 330.798 300.95C330.531 300.95 330.265 300.9 329.998 300.8C329.731 300.7 329.465 300.6 329.198 300.5C328.931 300.4 328.698 300.317 328.498 300.25C328.331 300.217 328.181 300.15 328.048 300.05C327.948 299.983 327.865 299.85 327.798 299.65C327.765 299.483 327.748 299.217 327.748 298.85C327.748 298.483 327.765 298.117 327.798 297.75C327.865 297.383 327.898 297 327.898 296.6C327.898 290.9 327.781 285.233 327.548 279.6C327.315 273.967 327.198 268.3 327.198 262.6C327.198 262.133 327.181 261.767 327.148 261.5C327.115 261.233 327.031 261.033 326.898 260.9C326.798 260.767 326.615 260.667 326.348 260.6C326.081 260.533 325.715 260.467 325.248 260.4ZM349.688 295.1C349.021 295.3 348.388 295.4 347.788 295.4C346.688 295.4 345.721 295.117 344.888 294.55C344.055 293.95 343.321 293.183 342.688 292.25C342.088 291.283 341.588 290.2 341.188 289C340.788 287.8 340.455 286.6 340.188 285.4C339.955 284.167 339.788 282.983 339.688 281.85C339.588 280.717 339.538 279.75 339.538 278.95C339.538 278.083 339.555 277.067 339.588 275.9C339.655 274.733 339.771 273.533 339.938 272.3C340.105 271.033 340.355 269.783 340.688 268.55C341.021 267.317 341.471 266.217 342.038 265.25C342.605 264.283 343.305 263.5 344.138 262.9C344.971 262.3 345.988 262 347.188 262C348.588 262 349.788 262.45 350.788 263.35C351.821 264.217 352.655 265.3 353.288 266.6C353.955 267.9 354.438 269.283 354.738 270.75C355.071 272.217 355.238 273.5 355.238 274.6C355.238 275.733 354.955 276.433 354.388 276.7C353.821 276.967 353.071 277.1 352.138 277.1C351.271 277.1 350.405 277.083 349.538 277.05C348.705 277.017 347.855 277 346.988 277C346.288 277 345.605 277.117 344.938 277.35C344.305 277.583 343.988 278.15 343.988 279.05C343.988 279.517 344.021 279.983 344.088 280.45C344.155 280.883 344.221 281.333 344.288 281.8C344.321 282.367 344.371 283.183 344.438 284.25C344.505 285.283 344.655 286.333 344.888 287.4C345.121 288.467 345.455 289.4 345.888 290.2C346.355 290.967 347.005 291.35 347.838 291.35C348.638 291.35 349.205 291.017 349.538 290.35C349.871 289.683 350.105 288.95 350.238 288.15C350.371 287.317 350.455 286.533 350.488 285.8C350.555 285.067 350.688 284.65 350.888 284.55C351.121 284.417 351.338 284.333 351.538 284.3C351.738 284.267 351.955 284.25 352.188 284.25C352.621 284.25 353.055 284.283 353.488 284.35C353.921 284.383 354.355 284.4 354.788 284.4C355.155 284.4 355.355 284.5 355.388 284.7C355.455 284.867 355.488 285.1 355.488 285.4C355.488 286.3 355.355 287.267 355.088 288.3C354.855 289.333 354.488 290.3 353.988 291.2C353.521 292.1 352.921 292.9 352.188 293.6C351.455 294.3 350.621 294.8 349.688 295.1ZM344.588 272.05C344.555 272.217 344.521 272.4 344.488 272.6C344.455 272.767 344.438 272.933 344.438 273.1C344.438 273.333 344.621 273.483 344.988 273.55C345.355 273.617 345.621 273.65 345.788 273.65C346.421 273.65 347.021 273.6 347.588 273.5C348.188 273.367 348.788 273.233 349.388 273.1C349.821 273.033 350.171 272.983 350.438 272.95C350.738 272.883 350.888 272.55 350.888 271.95C350.888 271.483 350.788 270.9 350.588 270.2C350.388 269.5 350.105 268.833 349.738 268.2C349.371 267.567 348.938 267.033 348.438 266.6C347.971 266.133 347.455 265.9 346.888 265.9C346.321 265.9 345.871 266.083 345.538 266.45C345.238 266.817 345.021 267.25 344.888 267.75C344.755 268.25 344.671 268.783 344.638 269.35C344.605 269.917 344.588 270.4 344.588 270.8C344.588 271 344.588 271.217 344.588 271.45C344.588 271.65 344.588 271.85 344.588 272.05ZM379.69 297.25C376.79 297.45 373.89 297.55 370.99 297.55C368.123 297.517 365.24 297.5 362.34 297.5C361.84 297.5 361.507 297.4 361.34 297.2C361.207 297 361.09 296.667 360.99 296.2C360.823 295.433 360.707 294.483 360.64 293.35C360.573 292.217 360.523 291.05 360.49 289.85C360.49 288.65 360.49 287.483 360.49 286.35C360.523 285.183 360.54 284.183 360.54 283.35C360.54 280.983 360.54 278.65 360.54 276.35C360.573 274.017 360.623 271.667 360.69 269.3C360.723 268.167 360.74 267.017 360.74 265.85C360.74 264.683 360.79 263.517 360.89 262.35C360.923 261.983 360.99 261.633 361.09 261.3C361.223 260.967 361.523 260.8 361.99 260.8C362.19 260.8 362.373 260.833 362.54 260.9C362.74 260.933 362.923 260.967 363.09 261C363.523 261.1 363.84 261.183 364.04 261.25C364.24 261.317 364.34 261.65 364.34 262.25C364.34 262.717 364.307 263.183 364.24 263.65C364.173 264.083 364.14 264.533 364.14 265C364.14 265.867 364.157 266.733 364.19 267.6C364.257 268.433 364.29 269.267 364.29 270.1C364.323 273.367 364.373 276.617 364.44 279.85C364.507 283.05 364.54 286.283 364.54 289.55C364.54 290.017 364.523 290.5 364.49 291C364.49 291.467 364.507 291.95 364.54 292.45C364.54 292.783 364.79 293.067 365.29 293.3C365.79 293.5 366.357 293.667 366.99 293.8C367.623 293.933 368.24 294.033 368.84 294.1C369.44 294.133 369.857 294.167 370.09 294.2C370.023 292.7 369.99 291.233 369.99 289.8C369.99 288.333 369.957 286.867 369.89 285.4C369.823 283.4 369.757 281.417 369.69 279.45C369.623 277.45 369.507 275.45 369.34 273.45C369.307 273.017 369.29 272.55 369.29 272.05C369.29 271.55 369.29 271.05 369.29 270.55C369.323 270.05 369.323 269.533 369.29 269C369.257 268.667 369.19 268.35 369.09 268.05C368.99 267.717 368.94 267.383 368.94 267.05C368.94 266.45 369.19 266.083 369.69 265.95C370.19 265.817 370.69 265.75 371.19 265.75C371.923 265.75 372.373 265.867 372.54 266.1C372.74 266.333 372.84 266.8 372.84 267.5C372.84 268.1 372.807 268.7 372.74 269.3C372.673 269.867 372.64 270.45 372.64 271.05C372.64 274.917 372.723 278.783 372.89 282.65C373.09 286.517 373.24 290.4 373.34 294.3C374.107 294.267 374.807 294.15 375.44 293.95C376.107 293.75 376.84 293.65 377.64 293.65V291.75C377.64 291.183 377.64 290.617 377.64 290.05C377.64 289.483 377.623 288.917 377.59 288.35C377.523 285.583 377.473 282.833 377.44 280.1C377.407 277.367 377.373 274.617 377.34 271.85C377.307 270.583 377.29 269.3 377.29 268C377.323 266.7 377.273 265.433 377.14 264.2C377.073 263.733 376.99 263.283 376.89 262.85C376.823 262.417 376.79 261.983 376.79 261.55C376.79 261.417 376.807 261.233 376.84 261C376.873 260.733 376.857 260.55 376.79 260.45C376.857 260.317 377.023 260.217 377.29 260.15C377.557 260.083 377.84 260.033 378.14 260C378.473 259.933 378.773 259.9 379.04 259.9C379.34 259.867 379.557 259.85 379.69 259.85C380.257 259.85 380.557 259.933 380.59 260.1C380.623 260.233 380.673 260.517 380.74 260.95C380.84 261.65 380.89 262.3 380.89 262.9C380.89 263.633 380.857 264.367 380.79 265.1C380.723 265.833 380.69 266.567 380.69 267.3C380.69 271.233 380.74 275.133 380.84 279C380.973 282.867 381.04 286.75 381.04 290.65C381.04 291.517 381.057 292.433 381.09 293.4C381.123 294.367 381.073 295.267 380.94 296.1C380.807 296.833 380.39 297.217 379.69 297.25ZM395.391 295.1C394.724 295.3 394.091 295.4 393.491 295.4C392.391 295.4 391.424 295.117 390.591 294.55C389.758 293.95 389.024 293.183 388.391 292.25C387.791 291.283 387.291 290.2 386.891 289C386.491 287.8 386.158 286.6 385.891 285.4C385.658 284.167 385.491 282.983 385.391 281.85C385.291 280.717 385.241 279.75 385.241 278.95C385.241 278.083 385.258 277.067 385.291 275.9C385.358 274.733 385.474 273.533 385.641 272.3C385.808 271.033 386.058 269.783 386.391 268.55C386.724 267.317 387.174 266.217 387.741 265.25C388.308 264.283 389.008 263.5 389.841 262.9C390.674 262.3 391.691 262 392.891 262C394.291 262 395.491 262.45 396.491 263.35C397.524 264.217 398.358 265.3 398.991 266.6C399.658 267.9 400.141 269.283 400.441 270.75C400.774 272.217 400.941 273.5 400.941 274.6C400.941 275.733 400.658 276.433 400.091 276.7C399.524 276.967 398.774 277.1 397.841 277.1C396.974 277.1 396.108 277.083 395.241 277.05C394.408 277.017 393.558 277 392.691 277C391.991 277 391.308 277.117 390.641 277.35C390.008 277.583 389.691 278.15 389.691 279.05C389.691 279.517 389.724 279.983 389.791 280.45C389.858 280.883 389.924 281.333 389.991 281.8C390.024 282.367 390.074 283.183 390.141 284.25C390.208 285.283 390.358 286.333 390.591 287.4C390.824 288.467 391.158 289.4 391.591 290.2C392.058 290.967 392.708 291.35 393.541 291.35C394.341 291.35 394.908 291.017 395.241 290.35C395.574 289.683 395.808 288.95 395.941 288.15C396.074 287.317 396.158 286.533 396.191 285.8C396.258 285.067 396.391 284.65 396.591 284.55C396.824 284.417 397.041 284.333 397.241 284.3C397.441 284.267 397.658 284.25 397.891 284.25C398.324 284.25 398.758 284.283 399.191 284.35C399.624 284.383 400.058 284.4 400.491 284.4C400.858 284.4 401.058 284.5 401.091 284.7C401.158 284.867 401.191 285.1 401.191 285.4C401.191 286.3 401.058 287.267 400.791 288.3C400.558 289.333 400.191 290.3 399.691 291.2C399.224 292.1 398.624 292.9 397.891 293.6C397.158 294.3 396.324 294.8 395.391 295.1ZM390.291 272.05C390.258 272.217 390.224 272.4 390.191 272.6C390.158 272.767 390.141 272.933 390.141 273.1C390.141 273.333 390.324 273.483 390.691 273.55C391.058 273.617 391.324 273.65 391.491 273.65C392.124 273.65 392.724 273.6 393.291 273.5C393.891 273.367 394.491 273.233 395.091 273.1C395.524 273.033 395.874 272.983 396.141 272.95C396.441 272.883 396.591 272.55 396.591 271.95C396.591 271.483 396.491 270.9 396.291 270.2C396.091 269.5 395.808 268.833 395.441 268.2C395.074 267.567 394.641 267.033 394.141 266.6C393.674 266.133 393.158 265.9 392.591 265.9C392.024 265.9 391.574 266.083 391.241 266.45C390.941 266.817 390.724 267.25 390.591 267.75C390.458 268.25 390.374 268.783 390.341 269.35C390.308 269.917 390.291 270.4 390.291 270.8C390.291 271 390.291 271.217 390.291 271.45C390.291 271.65 390.291 271.85 390.291 272.05ZM416.793 256.65C417.826 257.25 418.66 258.217 419.293 259.55C419.926 260.883 420.41 262.333 420.743 263.9C421.11 265.433 421.343 266.983 421.443 268.55C421.576 270.117 421.643 271.433 421.643 272.5C421.643 273.067 421.626 273.617 421.593 274.15C421.326 274.15 421.06 274.167 420.793 274.2C420.526 274.2 420.26 274.2 419.993 274.2C419.76 274.2 419.543 274.2 419.343 274.2C419.143 274.167 418.926 274.117 418.693 274.05C418.426 273.983 418.226 273.933 418.093 273.9C417.993 273.867 417.926 273.833 417.893 273.8C417.86 273.733 417.843 273.65 417.843 273.55C417.843 273.417 417.81 273.217 417.743 272.95C417.643 272.183 417.576 271.1 417.543 269.7C417.51 268.3 417.393 266.9 417.193 265.5C416.993 264.1 416.61 262.883 416.043 261.85C415.51 260.783 414.676 260.25 413.543 260.25C412.543 260.25 411.776 260.717 411.243 261.65C410.71 262.55 410.31 263.633 410.043 264.9C409.81 266.133 409.676 267.383 409.643 268.65C409.61 269.883 409.593 270.817 409.593 271.45C409.593 272.317 409.61 273.167 409.643 274C409.676 274.833 409.693 275.683 409.693 276.55C409.693 277.117 409.676 278.017 409.643 279.25C409.643 280.483 409.676 281.867 409.743 283.4C409.81 284.9 409.926 286.467 410.093 288.1C410.26 289.733 410.51 291.233 410.843 292.6C411.176 293.933 411.61 295.033 412.143 295.9C412.676 296.733 413.343 297.15 414.143 297.15C414.51 297.15 414.843 297.05 415.143 296.85C415.476 296.65 415.76 296.4 415.993 296.1C416.226 295.767 416.41 295.417 416.543 295.05C416.71 294.683 416.843 294.35 416.943 294.05C417.076 293.45 417.126 292.833 417.093 292.2C417.093 291.567 417.16 290.95 417.293 290.35C417.393 290.017 417.46 289.783 417.493 289.65C417.56 289.483 417.643 289.383 417.743 289.35C417.843 289.283 417.976 289.25 418.143 289.25C418.31 289.25 418.56 289.233 418.893 289.2C419.293 289.167 419.693 289.133 420.093 289.1C420.526 289.033 420.96 288.967 421.393 288.9C421.326 289.767 421.26 290.667 421.193 291.6C421.16 292.533 421.06 293.467 420.893 294.4C420.76 295.3 420.543 296.183 420.243 297.05C419.943 297.917 419.493 298.7 418.893 299.4C418.36 300.067 417.71 300.6 416.943 301C416.21 301.4 415.41 301.6 414.543 301.6C413.143 301.6 411.91 301.083 410.843 300.05C409.51 298.783 408.493 297.2 407.793 295.3C407.126 293.4 406.643 291.417 406.343 289.35C406.043 287.25 405.876 285.15 405.843 283.05C405.81 280.917 405.793 278.983 405.793 277.25C405.793 275.417 405.81 273.583 405.843 271.75C405.91 269.917 406.01 268.083 406.143 266.25C406.243 265.05 406.426 263.85 406.693 262.65C406.96 261.417 407.376 260.3 407.943 259.3C408.51 258.267 409.26 257.433 410.193 256.8C411.126 256.167 412.343 255.85 413.843 255.85C414.91 255.85 415.893 256.117 416.793 256.65ZM428.52 260.4C428.386 260.367 428.17 260.35 427.87 260.35C427.603 260.317 427.32 260.283 427.02 260.25C426.72 260.183 426.436 260.117 426.17 260.05C425.936 259.983 425.77 259.9 425.67 259.8C425.636 259.6 425.62 259.417 425.62 259.25C425.62 258.683 425.62 258.217 425.62 257.85C425.653 257.483 425.736 257.2 425.87 257C426.036 256.767 426.27 256.617 426.57 256.55C426.903 256.45 427.386 256.4 428.02 256.4C428.753 256.4 429.486 256.45 430.22 256.55C430.953 256.617 431.686 256.65 432.42 256.65C432.953 256.65 433.486 256.617 434.02 256.55C434.586 256.45 435.136 256.4 435.67 256.4C436.07 256.4 436.503 256.45 436.97 256.55C437.47 256.617 437.72 256.917 437.72 257.45C437.72 257.783 437.736 258.133 437.77 258.5C437.803 258.833 437.82 259.167 437.82 259.5C437.82 259.9 437.62 260.117 437.22 260.15C436.82 260.183 436.37 260.217 435.87 260.25C435.403 260.25 434.953 260.333 434.52 260.5C434.12 260.633 433.92 260.983 433.92 261.55C433.92 261.85 433.936 262.133 433.97 262.4C434.003 262.667 434.02 262.933 434.02 263.2C434.153 266.133 434.236 269.05 434.27 271.95C434.303 274.85 434.32 277.767 434.32 280.7C434.353 283.733 434.37 286.75 434.37 289.75C434.37 292.75 434.47 295.767 434.67 298.8C434.67 298.967 434.67 299.15 434.67 299.35C434.703 299.55 434.72 299.733 434.72 299.9C434.72 300.133 434.686 300.367 434.62 300.6C434.553 300.833 434.37 300.95 434.07 300.95C433.803 300.95 433.536 300.9 433.27 300.8C433.003 300.7 432.736 300.6 432.47 300.5C432.203 300.4 431.97 300.317 431.77 300.25C431.603 300.217 431.453 300.15 431.32 300.05C431.22 299.983 431.136 299.85 431.07 299.65C431.036 299.483 431.02 299.217 431.02 298.85C431.02 298.483 431.036 298.117 431.07 297.75C431.136 297.383 431.17 297 431.17 296.6C431.17 290.9 431.053 285.233 430.82 279.6C430.586 273.967 430.47 268.3 430.47 262.6C430.47 262.133 430.453 261.767 430.42 261.5C430.386 261.233 430.303 261.033 430.17 260.9C430.07 260.767 429.886 260.667 429.62 260.6C429.353 260.533 428.986 260.467 428.52 260.4ZM443.159 272.5C443.159 271.267 443.159 270.033 443.159 268.8C443.193 267.567 443.193 266.333 443.159 265.1C443.159 264.733 443.143 264.267 443.109 263.7C443.076 263.133 443.059 262.667 443.059 262.3C443.059 261.6 443.193 261.183 443.459 261.05C443.759 260.883 444.276 260.8 445.009 260.8C445.776 260.8 446.659 260.983 447.659 261.35C448.659 261.683 449.476 262.05 450.109 262.45C451.076 263.05 451.876 263.8 452.509 264.7C453.176 265.6 453.709 266.583 454.109 267.65C454.543 268.717 454.843 269.833 455.009 271C455.176 272.133 455.276 273.233 455.309 274.3C455.309 275.567 455.159 276.667 454.859 277.6C454.559 278.5 454.193 279.3 453.759 280C453.326 280.667 452.876 281.267 452.409 281.8C451.943 282.333 451.526 282.833 451.159 283.3C451.126 283.367 451.493 283.517 452.259 283.75C453.059 283.95 453.926 284.333 454.859 284.9C455.826 285.433 456.709 286.2 457.509 287.2C458.343 288.2 458.743 289.483 458.709 291.05C458.709 292.117 458.443 292.983 457.909 293.65C457.376 294.317 456.676 294.85 455.809 295.25C454.943 295.65 453.976 295.95 452.909 296.15C451.843 296.35 450.776 296.483 449.709 296.55C448.643 296.583 447.626 296.6 446.659 296.6C445.726 296.567 444.943 296.55 444.309 296.55C443.809 296.55 443.526 296.417 443.459 296.15C443.426 295.85 443.393 295.5 443.359 295.1C443.293 294.633 443.259 294.167 443.259 293.7C443.259 293.233 443.259 292.767 443.259 292.3C443.259 289 443.243 285.733 443.209 282.5C443.176 279.267 443.159 276.017 443.159 272.75V272.5ZM454.759 290.3C454.726 289.567 454.426 288.983 453.859 288.55C453.326 288.117 452.693 287.783 451.959 287.55C451.226 287.317 450.476 287.167 449.709 287.1C448.943 287.033 448.359 287 447.959 287C447.559 287 447.326 287.117 447.259 287.35C447.193 287.55 447.159 287.8 447.159 288.1C447.159 288.733 447.143 289.35 447.109 289.95C447.076 290.55 447.059 291.15 447.059 291.75C447.059 292.117 447.126 292.417 447.259 292.65C447.393 292.85 447.676 292.95 448.109 292.95C450.076 292.95 451.676 292.767 452.909 292.4C454.143 292.033 454.759 291.333 454.759 290.3ZM449.309 267.3C449.243 267.2 449.059 267 448.759 266.7C448.493 266.4 448.193 266.133 447.859 265.9C447.559 265.633 447.276 265.483 447.009 265.45C446.776 265.417 446.659 265.617 446.659 266.05C446.659 268.45 446.709 270.983 446.809 273.65C446.909 276.317 446.959 278.85 446.959 281.25C446.959 281.35 446.993 281.45 447.059 281.55C447.093 281.55 447.126 281.567 447.159 281.6C447.226 281.6 447.276 281.6 447.309 281.6C448.509 281.2 449.393 280.383 449.959 279.15C450.526 277.917 450.859 276.55 450.959 275.05C451.093 273.55 450.993 272.083 450.659 270.65C450.359 269.217 449.909 268.1 449.309 267.3ZM476.005 271.1C475.871 271.2 475.605 271.65 475.205 272.45C474.805 273.217 474.388 274.083 473.955 275.05C473.521 275.983 473.105 276.9 472.705 277.8C472.338 278.667 472.055 279.267 471.855 279.6C471.021 281.2 470.188 282.817 469.355 284.45C468.555 286.05 467.855 287.717 467.255 289.45C467.221 289.617 467.155 289.867 467.055 290.2C466.988 290.5 466.905 290.817 466.805 291.15C466.738 291.45 466.638 291.75 466.505 292.05C466.405 292.317 466.271 292.5 466.105 292.6C466.038 292.633 465.871 292.683 465.605 292.75C465.371 292.783 465.121 292.817 464.855 292.85C464.588 292.85 464.321 292.867 464.055 292.9C463.788 292.9 463.588 292.9 463.455 292.9C463.155 292.9 462.921 292.733 462.755 292.4C462.588 292.067 462.471 291.683 462.405 291.25C462.338 290.817 462.288 290.383 462.255 289.95C462.255 289.483 462.255 289.15 462.255 288.95C462.255 287.75 462.305 286.567 462.405 285.4C462.505 284.233 462.555 283.05 462.555 281.85C462.555 280.183 462.505 278.517 462.405 276.85C462.305 275.183 462.255 273.517 462.255 271.85C462.255 271.183 462.255 270.533 462.255 269.9C462.288 269.267 462.305 268.633 462.305 268C462.305 267.367 462.255 266.733 462.155 266.1C462.088 265.467 462.055 264.833 462.055 264.2C462.055 263.933 462.171 263.7 462.405 263.5C462.671 263.3 462.971 263.133 463.305 263C463.671 262.833 464.021 262.717 464.355 262.65C464.721 262.55 465.005 262.5 465.205 262.5C465.505 262.5 465.688 262.667 465.755 263C465.821 263.3 465.855 263.567 465.855 263.8C465.855 266.733 465.821 269.65 465.755 272.55C465.721 275.417 465.705 278.317 465.705 281.25C465.705 281.75 465.721 282.25 465.755 282.75C465.788 283.217 465.855 283.7 465.955 284.2C466.288 283.767 466.705 283.133 467.205 282.3C467.705 281.433 468.188 280.533 468.655 279.6C469.155 278.633 469.621 277.7 470.055 276.8C470.488 275.9 470.805 275.183 471.005 274.65C471.438 273.517 471.921 272.433 472.455 271.4C473.021 270.333 473.538 269.25 474.005 268.15C474.105 267.883 474.221 267.517 474.355 267.05C474.488 266.583 474.621 266.1 474.755 265.6C474.888 265.1 475.038 264.65 475.205 264.25C475.371 263.817 475.555 263.517 475.755 263.35C476.021 263.117 476.338 262.95 476.705 262.85C477.071 262.717 477.455 262.65 477.855 262.65C478.355 262.65 478.705 262.8 478.905 263.1C479.105 263.4 479.205 263.783 479.205 264.25C479.205 264.85 479.138 265.45 479.005 266.05C478.905 266.617 478.855 267.183 478.855 267.75C478.855 271.25 478.905 274.733 479.005 278.2C479.105 281.633 479.155 285.1 479.155 288.6C479.155 289.4 479.138 290.2 479.105 291C479.071 291.767 479.021 292.55 478.955 293.35C478.888 293.783 478.821 294.1 478.755 294.3C478.721 294.467 478.655 294.583 478.555 294.65C478.455 294.717 478.288 294.75 478.055 294.75C477.855 294.75 477.571 294.767 477.205 294.8C477.038 294.8 476.855 294.817 476.655 294.85C476.488 294.883 476.305 294.9 476.105 294.9C475.871 294.9 475.688 294.8 475.555 294.6C475.455 294.367 475.371 294.117 475.305 293.85C475.271 293.55 475.238 293.267 475.205 293C475.205 292.7 475.205 292.467 475.205 292.3C475.205 288.867 475.355 285.467 475.655 282.1C475.988 278.7 476.155 275.283 476.155 271.85C476.155 271.517 476.105 271.267 476.005 271.1ZM493.877 295.1C493.211 295.3 492.577 295.4 491.977 295.4C490.877 295.4 489.911 295.117 489.077 294.55C488.244 293.95 487.511 293.183 486.877 292.25C486.277 291.283 485.777 290.2 485.377 289C484.977 287.8 484.644 286.6 484.377 285.4C484.144 284.167 483.977 282.983 483.877 281.85C483.777 280.717 483.727 279.75 483.727 278.95C483.727 278.083 483.744 277.067 483.777 275.9C483.844 274.733 483.961 273.533 484.127 272.3C484.294 271.033 484.544 269.783 484.877 268.55C485.211 267.317 485.661 266.217 486.227 265.25C486.794 264.283 487.494 263.5 488.327 262.9C489.161 262.3 490.177 262 491.377 262C492.777 262 493.977 262.45 494.977 263.35C496.011 264.217 496.844 265.3 497.477 266.6C498.144 267.9 498.627 269.283 498.927 270.75C499.261 272.217 499.427 273.5 499.427 274.6C499.427 275.733 499.144 276.433 498.577 276.7C498.011 276.967 497.261 277.1 496.327 277.1C495.461 277.1 494.594 277.083 493.727 277.05C492.894 277.017 492.044 277 491.177 277C490.477 277 489.794 277.117 489.127 277.35C488.494 277.583 488.177 278.15 488.177 279.05C488.177 279.517 488.211 279.983 488.277 280.45C488.344 280.883 488.411 281.333 488.477 281.8C488.511 282.367 488.561 283.183 488.627 284.25C488.694 285.283 488.844 286.333 489.077 287.4C489.311 288.467 489.644 289.4 490.077 290.2C490.544 290.967 491.194 291.35 492.027 291.35C492.827 291.35 493.394 291.017 493.727 290.35C494.061 289.683 494.294 288.95 494.427 288.15C494.561 287.317 494.644 286.533 494.677 285.8C494.744 285.067 494.877 284.65 495.077 284.55C495.311 284.417 495.527 284.333 495.727 284.3C495.927 284.267 496.144 284.25 496.377 284.25C496.811 284.25 497.244 284.283 497.677 284.35C498.111 284.383 498.544 284.4 498.977 284.4C499.344 284.4 499.544 284.5 499.577 284.7C499.644 284.867 499.677 285.1 499.677 285.4C499.677 286.3 499.544 287.267 499.277 288.3C499.044 289.333 498.677 290.3 498.177 291.2C497.711 292.1 497.111 292.9 496.377 293.6C495.644 294.3 494.811 294.8 493.877 295.1ZM488.777 272.05C488.744 272.217 488.711 272.4 488.677 272.6C488.644 272.767 488.627 272.933 488.627 273.1C488.627 273.333 488.811 273.483 489.177 273.55C489.544 273.617 489.811 273.65 489.977 273.65C490.611 273.65 491.211 273.6 491.777 273.5C492.377 273.367 492.977 273.233 493.577 273.1C494.011 273.033 494.361 272.983 494.627 272.95C494.927 272.883 495.077 272.55 495.077 271.95C495.077 271.483 494.977 270.9 494.777 270.2C494.577 269.5 494.294 268.833 493.927 268.2C493.561 267.567 493.127 267.033 492.627 266.6C492.161 266.133 491.644 265.9 491.077 265.9C490.511 265.9 490.061 266.083 489.727 266.45C489.427 266.817 489.211 267.25 489.077 267.75C488.944 268.25 488.861 268.783 488.827 269.35C488.794 269.917 488.777 270.4 488.777 270.8C488.777 271 488.777 271.217 488.777 271.45C488.777 271.65 488.777 271.85 488.777 272.05Z" fill="white"/>
<path d="M271.783 391.5C269.716 390.967 268.049 389.767 266.783 387.9C265.583 386.033 264.649 383.933 263.983 381.6C263.383 379.2 262.983 376.767 262.783 374.3C262.583 371.833 262.483 369.7 262.483 367.9C262.483 364.9 262.783 362.367 263.383 360.3C264.049 358.233 265.049 356.567 266.383 355.3C267.716 354.033 269.416 353.133 271.483 352.6C273.616 352.067 276.183 351.8 279.183 351.8C280.316 351.8 281.316 351.867 282.183 352C281.716 350.8 280.849 349.8 279.583 349C278.316 348.133 276.883 347.3 275.283 346.5C273.683 345.7 272.016 344.9 270.283 344.1C268.549 343.233 266.949 342.167 265.483 340.9C264.016 339.633 262.816 338.133 261.883 336.4C260.949 334.6 260.483 332.4 260.483 329.8C260.483 328.4 260.849 327.067 261.583 325.8C262.316 324.533 263.149 323.4 264.083 322.4C265.549 320.867 267.383 319.6 269.583 318.6C271.783 317.6 274.083 316.833 276.483 316.3C278.949 315.767 281.416 315.4 283.883 315.2C286.349 315 288.616 314.9 290.683 314.9H292.483C292.616 315.167 292.683 315.5 292.683 315.9C292.683 316.367 292.616 317 292.483 317.8C292.416 318.533 292.316 319.3 292.183 320.1C292.116 320.833 291.983 321.567 291.783 322.3C291.649 323.033 291.516 323.633 291.383 324.1C291.316 324.167 291.249 324.3 291.183 324.5C291.116 324.7 291.049 324.8 290.983 324.8C289.916 324.8 288.849 324.733 287.783 324.6C286.783 324.4 285.783 324.3 284.783 324.3C283.849 324.3 282.583 324.4 280.983 324.6C279.383 324.733 277.783 325.033 276.183 325.5C274.583 325.9 273.216 326.5 272.083 327.3C270.949 328.1 270.383 329.133 270.383 330.4C270.383 332.133 271.183 333.6 272.783 334.8C274.449 335.933 276.316 337.2 278.383 338.6C280.516 340 282.583 341.733 284.583 343.8C286.583 345.867 287.983 348.6 288.783 352C289.249 354.4 289.583 356.833 289.783 359.3C289.983 361.767 290.083 364.233 290.083 366.7C290.083 369.433 289.916 372.3 289.583 375.3C289.316 378.233 288.649 380.933 287.583 383.4C286.516 385.867 284.949 387.9 282.883 389.5C280.816 391.1 278.016 391.9 274.483 391.9C273.483 391.9 272.583 391.767 271.783 391.5ZM275.883 389.4H275.983H275.883ZM272.483 361.3C272.083 363.233 271.783 365.2 271.583 367.2C271.383 369.133 271.283 371.1 271.283 373.1C271.283 373.967 271.283 375.067 271.283 376.4C271.283 377.733 271.383 379.067 271.583 380.4C271.849 381.667 272.249 382.8 272.783 383.8C273.383 384.8 274.249 385.367 275.383 385.5C276.449 385.1 277.383 384.6 278.183 384C278.716 383.067 279.183 381.833 279.583 380.3C280.049 378.7 280.416 377.033 280.683 375.3C281.016 373.567 281.249 371.867 281.383 370.2C281.516 368.533 281.583 367.167 281.583 366.1C281.583 363.367 281.349 360.767 280.883 358.3C279.349 358.433 277.849 358.733 276.383 359.2C274.983 359.667 273.683 360.367 272.483 361.3ZM330.315 369C330.448 369.6 330.715 370.7 331.115 372.3C331.582 373.833 332.048 375.433 332.515 377.1C332.982 378.767 333.382 380.3 333.715 381.7C334.115 383.1 334.315 383.967 334.315 384.3C334.315 384.9 334.082 385.267 333.615 385.4C333.148 385.467 332.715 385.5 332.315 385.5L330.915 385.4C329.648 385.333 328.682 385.133 328.015 384.8C327.415 384.467 326.948 384.033 326.615 383.5C326.348 382.9 326.148 382.2 326.015 381.4C325.948 380.6 325.782 379.667 325.515 378.6C324.982 376.2 324.348 373.833 323.615 371.5C322.948 369.167 322.315 366.833 321.715 364.5C321.115 361.967 320.548 359.467 320.015 357C319.482 354.533 318.882 352.067 318.215 349.6C318.148 349.133 318.015 348.267 317.815 347C317.615 345.667 317.382 344.3 317.115 342.9C316.848 341.5 316.582 340.233 316.315 339.1C316.048 337.967 315.782 337.3 315.515 337.1C314.715 341.967 313.948 346.8 313.215 351.6C312.548 356.333 311.982 361.133 311.515 366C311.248 368.667 310.848 371.3 310.315 373.9C309.848 376.5 309.515 379.133 309.315 381.8C309.315 382.533 309.315 383.1 309.315 383.5C309.315 383.9 309.248 384.233 309.115 384.5C308.982 384.7 308.748 384.867 308.415 385C308.082 385.067 307.548 385.2 306.815 385.4C306.348 385.533 305.848 385.6 305.315 385.6C304.582 385.6 303.782 385.5 302.915 385.3C302.115 385.1 301.382 384.833 300.715 384.5C300.848 380.633 301.415 376.833 302.415 373.1C303.415 369.3 304.182 365.467 304.715 361.6C305.382 356.8 306.082 352.067 306.815 347.4C307.548 342.667 308.282 337.9 309.015 333.1C309.082 332.5 309.148 331.667 309.215 330.6C309.282 329.467 309.348 328.333 309.415 327.2C309.548 326 309.715 324.9 309.915 323.9C310.115 322.9 310.415 322.233 310.815 321.9C311.282 321.567 311.982 321.367 312.915 321.3C313.848 321.233 314.582 321.2 315.115 321.2C315.515 321.2 315.982 321.233 316.515 321.3C317.048 321.3 317.482 321.367 317.815 321.5C318.282 321.767 318.682 322.2 319.015 322.8C319.348 323.4 319.582 324.1 319.715 324.9C319.915 325.633 320.082 326.4 320.215 327.2C320.348 327.933 320.448 328.533 320.515 329C321.982 335.733 323.548 342.4 325.215 349C326.948 355.6 328.648 362.267 330.315 369ZM370.045 338.2C369.778 338.4 369.245 339.3 368.445 340.9C367.645 342.433 366.811 344.167 365.945 346.1C365.078 347.967 364.245 349.8 363.445 351.6C362.711 353.333 362.145 354.533 361.745 355.2C360.078 358.4 358.411 361.633 356.745 364.9C355.145 368.1 353.745 371.433 352.545 374.9C352.478 375.233 352.345 375.733 352.145 376.4C352.011 377 351.845 377.633 351.645 378.3C351.511 378.9 351.311 379.5 351.045 380.1C350.845 380.633 350.578 381 350.245 381.2C350.111 381.267 349.778 381.367 349.245 381.5C348.778 381.567 348.278 381.633 347.745 381.7C347.211 381.7 346.678 381.733 346.145 381.8C345.611 381.8 345.211 381.8 344.945 381.8C344.345 381.8 343.878 381.467 343.545 380.8C343.211 380.133 342.978 379.367 342.845 378.5C342.711 377.633 342.611 376.767 342.545 375.9C342.545 374.967 342.545 374.3 342.545 373.9C342.545 371.5 342.645 369.133 342.845 366.8C343.045 364.467 343.145 362.1 343.145 359.7C343.145 356.367 343.045 353.033 342.845 349.7C342.645 346.367 342.545 343.033 342.545 339.7C342.545 338.367 342.545 337.067 342.545 335.8C342.611 334.533 342.645 333.267 342.645 332C342.645 330.733 342.545 329.467 342.345 328.2C342.211 326.933 342.145 325.667 342.145 324.4C342.145 323.867 342.378 323.4 342.845 323C343.378 322.6 343.978 322.267 344.645 322C345.378 321.667 346.078 321.433 346.745 321.3C347.478 321.1 348.045 321 348.445 321C349.045 321 349.411 321.333 349.545 322C349.678 322.6 349.745 323.133 349.745 323.6C349.745 329.467 349.678 335.3 349.545 341.1C349.478 346.833 349.445 352.633 349.445 358.5C349.445 359.5 349.478 360.5 349.545 361.5C349.611 362.433 349.745 363.4 349.945 364.4C350.611 363.533 351.445 362.267 352.445 360.6C353.445 358.867 354.411 357.067 355.345 355.2C356.345 353.267 357.278 351.4 358.145 349.6C359.011 347.8 359.645 346.367 360.045 345.3C360.911 343.033 361.878 340.867 362.945 338.8C364.078 336.667 365.111 334.5 366.045 332.3C366.245 331.767 366.478 331.033 366.745 330.1C367.011 329.167 367.278 328.2 367.545 327.2C367.811 326.2 368.111 325.3 368.445 324.5C368.778 323.633 369.145 323.033 369.545 322.7C370.078 322.233 370.711 321.9 371.445 321.7C372.178 321.433 372.945 321.3 373.745 321.3C374.745 321.3 375.445 321.6 375.845 322.2C376.245 322.8 376.445 323.567 376.445 324.5C376.445 325.7 376.311 326.9 376.045 328.1C375.845 329.233 375.745 330.367 375.745 331.5C375.745 338.5 375.845 345.467 376.045 352.4C376.245 359.267 376.345 366.2 376.345 373.2C376.345 374.8 376.311 376.4 376.245 378C376.178 379.533 376.078 381.1 375.945 382.7C375.811 383.567 375.678 384.2 375.545 384.6C375.478 384.933 375.345 385.167 375.145 385.3C374.945 385.433 374.611 385.5 374.145 385.5C373.745 385.5 373.178 385.533 372.445 385.6C372.111 385.6 371.745 385.633 371.345 385.7C371.011 385.767 370.645 385.8 370.245 385.8C369.778 385.8 369.411 385.6 369.145 385.2C368.945 384.733 368.778 384.233 368.645 383.7C368.578 383.1 368.511 382.533 368.445 382C368.445 381.4 368.445 380.933 368.445 380.6C368.445 373.733 368.745 366.933 369.345 360.2C370.011 353.4 370.345 346.567 370.345 339.7C370.345 339.033 370.245 338.533 370.045 338.2ZM409.19 390.5C408.257 392.567 406.79 394.3 404.79 395.7C402.857 397.167 400.723 397.9 398.39 397.9C396.257 397.9 394.29 397.333 392.49 396.2C390.757 395.067 389.257 393.633 387.99 391.9C386.723 390.1 385.723 388.133 384.99 386C384.323 383.867 383.99 381.833 383.99 379.9C383.99 379.633 384.323 379.4 384.99 379.2C385.657 379 386.423 378.833 387.29 378.7C388.157 378.5 388.957 378.367 389.69 378.3C390.49 378.167 391.023 378.067 391.29 378C391.423 379.067 391.59 380.3 391.79 381.7C391.99 383.1 392.323 384.433 392.79 385.7C393.257 386.967 393.89 388.033 394.69 388.9C395.557 389.767 396.69 390.2 398.09 390.2C399.423 390.2 400.523 389.633 401.39 388.5C402.323 387.3 403.057 385.9 403.59 384.3C404.123 382.7 404.49 381.067 404.69 379.4C404.89 377.733 404.99 376.4 404.99 375.4C404.99 372.867 404.89 370.467 404.69 368.2C404.49 365.867 403.923 363.833 402.99 362.1C402.123 360.367 400.79 359 398.99 358C397.257 357 394.823 356.5 391.69 356.5L389.99 356.6C389.323 356.533 388.823 356.167 388.49 355.5C388.157 354.833 387.923 354.067 387.79 353.2C387.723 352.267 387.757 351.333 387.89 350.4C388.023 349.467 388.223 348.667 388.49 348C389.423 348.067 390.49 348.133 391.69 348.2C392.957 348.267 394.157 348.2 395.29 348C396.423 347.8 397.423 347.433 398.29 346.9C399.157 346.367 399.723 345.5 399.99 344.3C400.523 341.9 400.957 339.433 401.29 336.9C401.69 334.3 401.89 331.767 401.89 329.3C401.89 328.367 401.857 327.233 401.79 325.9C401.723 324.5 401.523 323.167 401.19 321.9C400.857 320.633 400.323 319.567 399.59 318.7C398.857 317.767 397.857 317.3 396.59 317.3C395.19 317.3 394.057 317.733 393.19 318.6C392.39 319.4 391.757 320.433 391.29 321.7C390.823 322.9 390.49 324.2 390.29 325.6C390.09 326.933 389.923 328.133 389.79 329.2C389.523 329.133 388.99 329.033 388.19 328.9C387.457 328.767 386.657 328.6 385.79 328.4C384.923 328.133 384.157 327.867 383.49 327.6C382.823 327.333 382.49 327.1 382.49 326.9C382.49 325.233 382.757 323.367 383.29 321.3C383.823 319.167 384.657 317.2 385.79 315.4C386.99 313.533 388.49 311.967 390.29 310.7C392.157 309.433 394.357 308.8 396.89 308.8C399.757 308.8 402.057 309.567 403.79 311.1C405.523 312.567 406.857 314.4 407.79 316.6C408.723 318.8 409.323 321.167 409.59 323.7C409.923 326.233 410.09 328.6 410.09 330.8C410.09 332.733 410.023 334.733 409.89 336.8C409.757 338.867 409.423 340.9 408.89 342.9C408.357 344.833 407.523 346.6 406.39 348.2C405.323 349.8 403.79 351.1 401.79 352.1C405.257 352.9 407.623 354.667 408.89 357.4C410.157 360.067 411.023 363.533 411.49 367.8C411.623 369.133 411.723 370.467 411.79 371.8C411.923 373.133 411.99 374.5 411.99 375.9C411.99 378.367 411.79 380.867 411.39 383.4C410.99 385.867 410.257 388.233 409.19 390.5ZM431.855 388.5C431.989 389.567 432.155 390.6 432.355 391.6C432.555 392.6 432.655 393.633 432.655 394.7C432.655 395.033 432.589 395.467 432.455 396C432.389 396.533 432.422 396.933 432.555 397.2C432.355 397.533 431.955 397.767 431.355 397.9C430.755 398.1 430.089 398.233 429.355 398.3C428.689 398.433 428.022 398.5 427.355 398.5C426.689 398.567 426.155 398.6 425.755 398.6C424.555 398.6 423.855 398.433 423.655 398.1C423.522 397.833 423.389 397.167 423.255 396.1C423.189 395.3 423.122 394.5 423.055 393.7C422.989 392.9 422.955 392.1 422.955 391.3C422.955 389.633 423.022 387.967 423.155 386.3C423.289 384.633 423.355 382.967 423.355 381.3C423.355 369.033 423.322 356.867 423.255 344.8C423.189 332.667 423.055 320.467 422.855 308.2C423.189 308.2 423.755 308.2 424.555 308.2C425.355 308.2 426.189 308.233 427.055 308.3C427.922 308.3 428.689 308.367 429.355 308.5C430.089 308.633 430.522 308.8 430.655 309C430.855 309.2 430.955 309.533 430.955 310C430.955 310.467 430.955 310.833 430.955 311.1C430.955 313.633 430.889 316.167 430.755 318.7C430.689 321.167 430.655 323.633 430.655 326.1C430.655 327.767 430.655 329.4 430.655 331C430.722 332.6 430.755 334.233 430.755 335.9C430.755 337.967 430.622 340 430.355 342C430.155 344 430.022 346.033 429.955 348.1C431.289 345.167 433.022 342.533 435.155 340.2C437.355 337.867 439.422 335.467 441.355 333C441.755 332.467 442.422 331.567 443.355 330.3C444.355 328.967 445.389 327.6 446.455 326.2C447.522 324.8 448.522 323.533 449.455 322.4C450.389 321.267 451.022 320.633 451.355 320.5L455.255 323.1C455.255 323.167 455.255 323.267 455.255 323.4C455.322 323.467 455.355 323.533 455.355 323.6C455.355 324.333 454.822 325.533 453.755 327.2C452.689 328.8 451.322 330.667 449.655 332.8C448.055 334.867 446.289 337.067 444.355 339.4C442.489 341.667 440.722 343.8 439.055 345.8C437.455 347.8 436.089 349.533 434.955 351C433.889 352.467 433.355 353.433 433.355 353.9C433.355 354.433 433.622 355.067 434.155 355.8C434.755 356.533 435.189 357.133 435.455 357.6C435.789 358.067 436.389 359.1 437.255 360.7C438.122 362.3 439.122 364.2 440.255 366.4C441.389 368.533 442.555 370.8 443.755 373.2C445.022 375.6 446.155 377.867 447.155 380C448.222 382.067 449.089 383.833 449.755 385.3C450.489 386.767 450.855 387.633 450.855 387.9C450.855 388.367 450.655 388.8 450.255 389.2C449.855 389.6 449.389 389.967 448.855 390.3C448.389 390.567 447.855 390.8 447.255 391C446.722 391.133 446.255 391.233 445.855 391.3C445.522 390.9 444.889 389.9 443.955 388.3C443.089 386.633 442.055 384.667 440.855 382.4C439.722 380.067 438.522 377.6 437.255 375C435.989 372.4 434.822 369.967 433.755 367.7C432.689 365.433 431.789 363.5 431.055 361.9C430.322 360.233 429.922 359.267 429.855 359C429.855 363.933 430.022 368.867 430.355 373.8C430.689 378.667 431.189 383.567 431.855 388.5ZM479.584 386.5C475.384 386.5 471.884 385.4 469.084 383.2C466.284 380.933 464.05 378.133 462.384 374.8C460.717 371.4 459.517 367.767 458.784 363.9C458.117 359.967 457.784 356.333 457.784 353C457.784 349.333 458.15 345.7 458.884 342.1C459.684 338.433 460.984 335.133 462.784 332.2C464.584 329.267 466.95 326.9 469.884 325.1C472.817 323.233 476.417 322.3 480.684 322.3C485.084 322.3 488.65 323.467 491.384 325.8C494.117 328.067 496.25 330.9 497.784 334.3C499.384 337.7 500.45 341.4 500.984 345.4C501.584 349.4 501.884 353.1 501.884 356.5C501.884 359.967 501.484 363.5 500.684 367.1C499.884 370.633 498.584 373.833 496.784 376.7C495.05 379.567 492.75 381.933 489.884 383.8C487.084 385.6 483.65 386.5 479.584 386.5ZM480.684 329.7C477.55 329.7 474.984 330.333 472.984 331.6C470.984 332.8 469.417 334.433 468.284 336.5C467.15 338.5 466.35 340.8 465.884 343.4C465.484 345.933 465.284 348.5 465.284 351.1C465.284 353.3 465.384 355.4 465.584 357.4C465.784 359.133 466.184 361.267 466.784 363.8C467.45 366.267 468.35 368.667 469.484 371C470.684 373.267 472.117 375.2 473.784 376.8C475.45 378.4 477.384 379.2 479.584 379.2C482.45 379.2 484.817 378.3 486.684 376.5C488.617 374.633 490.15 372.367 491.284 369.7C492.417 367.033 493.217 364.233 493.684 361.3C494.15 358.367 494.384 355.8 494.384 353.6C494.384 351.6 494.15 349.233 493.684 346.5C493.284 343.7 492.55 341.067 491.484 338.6C490.417 336.133 488.984 334.033 487.184 332.3C485.45 330.567 483.284 329.7 480.684 329.7ZM513.327 382.3C513.794 382.3 514.261 382.333 514.727 382.4C515.194 382.4 515.661 382.4 516.127 382.4C517.394 382.533 518.061 383.233 518.127 384.5C518.194 385.967 518.227 387.433 518.227 388.9C518.227 390.367 518.227 391.833 518.227 393.3C518.227 393.9 517.994 394.4 517.527 394.8C517.127 395.267 516.627 395.5 516.027 395.5C515.827 395.5 515.461 395.467 514.927 395.4C514.461 395.4 513.961 395.367 513.427 395.3C512.894 395.233 512.394 395.133 511.927 395C511.461 394.933 511.161 394.8 511.027 394.6C510.894 394.467 510.827 394.133 510.827 393.6C510.827 393.133 510.827 392.8 510.827 392.6C510.827 391.2 510.861 389.833 510.927 388.5C510.994 387.1 511.061 385.7 511.127 384.3C511.127 383.7 511.327 383.2 511.727 382.8C512.127 382.4 512.661 382.233 513.327 382.3ZM510.027 320.2C509.894 319.133 509.727 318.1 509.527 317.1C509.394 316.1 509.327 315.067 509.327 314C509.327 313.733 509.361 313.3 509.427 312.7C509.494 312.1 509.461 311.7 509.327 311.5C509.461 311.233 509.794 311 510.327 310.8C510.927 310.6 511.561 310.467 512.227 310.4C512.961 310.267 513.661 310.2 514.327 310.2C514.994 310.133 515.461 310.1 515.727 310.1C516.927 310.1 517.527 310.3 517.527 310.7C517.594 311.1 517.694 311.733 517.827 312.6C518.027 314.133 518.127 315.633 518.127 317.1C518.127 318.7 518.061 320.333 517.927 322C517.861 323.6 517.827 325.2 517.827 326.8C517.827 334.267 517.894 341.7 518.027 349.1C518.161 356.433 518.227 363.833 518.227 371.3C518.227 371.9 517.994 372.4 517.527 372.8C517.127 373.2 516.627 373.4 516.027 373.4C515.827 373.4 515.461 373.4 514.927 373.4C514.461 373.4 513.961 373.367 513.427 373.3C512.894 373.233 512.394 373.167 511.927 373.1C511.461 372.967 511.161 372.8 511.027 372.6C510.894 372.4 510.827 372.067 510.827 371.6C510.827 371.133 510.827 370.8 510.827 370.6C510.827 368.067 510.861 365.567 510.927 363.1C511.061 360.567 511.127 358.033 511.127 355.5C511.127 353.167 511.094 351.033 511.027 349.1C510.894 344.433 510.827 339.6 510.827 334.6C510.827 329.533 510.561 324.733 510.027 320.2Z" fill="white"/>
<path fill-rule="evenodd" clip-rule="evenodd" d="M203 93C203 93 183.13 239.71 180.714 307.009C180.544 311.737 172 310 172 319C172 328 180.073 329.049 180 333C178 441 203 602 203 602C203 602 140 639 124 635C114 623 94 617 94 635C94 653 119 659 124 657C129 655 144 669 167 663C190 657 206 650 215 654C224 658 236 665 251 657C266 649 250 618 243 602C236 586 210 449 210 363C210 277 243 93 243 93H203Z" fill="#E1B2A1"/>
<mask id="mask0" mask-type="alpha" maskUnits="userSpaceOnUse" x="94" y="93" width="164" height="572">
<path fill-rule="evenodd" clip-rule="evenodd" d="M203 93C203 93 183.13 239.71 180.714 307.009C180.544 311.737 172 310 172 319C172 328 180.073 329.049 180 333C178 441 203 602 203 602C203 602 140 639 124 635C114 623 94 617 94 635C94 653 119 659 124 657C129 655 144 669 167 663C190 657 206 650 215 654C224 658 236 665 251 657C266 649 250 618 243 602C236 586 210 449 210 363C210 277 243 93 243 93H203Z" fill="white"/>
</mask>
<g mask="url(#mask0)">
<path fill-rule="evenodd" clip-rule="evenodd" d="M189 79H247C247 79 270 124 242 138C214 152 189 131 189 131V79Z" fill="#CC9B8A"/>
<path fill-rule="evenodd" clip-rule="evenodd" d="M157 222L181 248L200 340L152 370L157 222Z" fill="#CC9B8A"/>
<path fill-rule="evenodd" clip-rule="evenodd" d="M77.9326 626C81.9326 636 104.933 649 123.933 649C131.933 654 151.933 662 172.933 651C193.933 640 211 626 211 626C211 626 230 632 238 626C246 620 243 601 243 601C243 601 256.13 596.15 257 597C269.761 609.469 256.081 622.879 272.933 626C299.933 631 288.933 660 264.933 667C240.933 674 155.933 684 118.933 674C81.9326 664 73.9326 616 77.9326 626Z" fill="#CC9B8A"/>
</g>
<path fill-rule="evenodd" clip-rule="evenodd" d="M187.953 462.478C187.953 462.478 182.25 474.268 183.293 474.778C184.337 475.288 191.657 464.288 191.657 464.288L187.953 462.478Z" fill="#9D796C"/>
<path fill-rule="evenodd" clip-rule="evenodd" d="M190.953 189.754C190.953 189.754 185.25 201.544 186.293 202.054C187.337 202.564 194.657 191.564 194.657 191.564L190.953 189.754Z" fill="#9D796C"/>
<path fill-rule="evenodd" clip-rule="evenodd" d="M200.761 338.571C200.761 338.571 206.54 350.324 207.585 349.815C208.629 349.307 204.468 336.766 204.468 336.766L200.761 338.571Z" fill="#9D796C"/>
<path fill-rule="evenodd" clip-rule="evenodd" d="M204.525 494.557C204.525 494.557 203.37 510.74 204.525 510.862C205.681 510.985 208.626 494.99 208.626 494.99L204.525 494.557Z" fill="#9D796C"/>
<path fill-rule="evenodd" clip-rule="evenodd" d="M215.144 229.255C215.144 229.255 223.961 242.875 224.957 242.278C225.953 241.68 218.679 227.134 218.679 227.134L215.144 229.255Z" fill="#9D796C"/>
<path fill-rule="evenodd" clip-rule="evenodd" d="M184.525 355.557C184.525 355.557 183.37 371.74 184.525 371.862C185.681 371.985 188.626 355.99 188.626 355.99L184.525 355.557Z" fill="#9D796C"/>
<path fill-rule="evenodd" clip-rule="evenodd" d="M230.925 576.624C230.925 576.624 238.77 590.826 239.805 590.299C240.841 589.773 234.599 574.755 234.599 574.755L230.925 576.624Z" fill="#9D796C"/>
<path fill-rule="evenodd" clip-rule="evenodd" d="M230.925 135.881C230.925 135.881 238.77 150.083 239.805 149.556C240.841 149.029 234.599 134.012 234.599 134.012L230.925 135.881Z" fill="#9D796C"/>
<path fill-rule="evenodd" clip-rule="evenodd" d="M210.925 437.624C210.925 437.624 218.77 451.826 219.805 451.299C220.841 450.773 214.599 435.755 214.599 435.755L210.925 437.624Z" fill="#9D796C"/>
<path fill-rule="evenodd" clip-rule="evenodd" d="M216.892 165.305C216.892 165.305 224.738 179.506 225.773 178.98C226.809 178.453 220.567 163.435 220.567 163.435L216.892 165.305Z" fill="#9D796C"/>
<path fill-rule="evenodd" clip-rule="evenodd" d="M207.267 570.763C207.267 570.763 206.107 581.247 207.267 581.309C208.428 581.37 211.385 570.982 211.385 570.982L207.267 570.763Z" fill="#9D796C"/>
<path fill-rule="evenodd" clip-rule="evenodd" d="M199.267 223.763C199.267 223.763 198.107 234.247 199.267 234.309C200.428 234.37 203.385 223.982 203.385 223.982L199.267 223.763Z" fill="#9D796C"/>
<path fill-rule="evenodd" clip-rule="evenodd" d="M187.267 431.763C187.267 431.763 186.107 442.247 187.267 442.309C188.428 442.37 191.385 431.982 191.385 431.982L187.267 431.763Z" fill="#9D796C"/>
<path fill-rule="evenodd" clip-rule="evenodd" d="M195.904 154.761C195.904 154.761 190.559 160.235 191.195 160.788C191.831 161.341 198.16 156.724 198.16 156.724L195.904 154.761Z" fill="#9D796C"/>
<path fill-rule="evenodd" clip-rule="evenodd" d="M203.204 549.773C203.204 549.773 197.474 556.293 198.226 556.882C198.979 557.471 205.876 551.864 205.876 551.864L203.204 549.773Z" fill="#9D796C"/>
<path fill-rule="evenodd" clip-rule="evenodd" d="M205.768 277.978C205.768 277.978 206.628 286.616 207.572 286.467C208.516 286.318 209.119 277.45 209.119 277.45L205.768 277.978Z" fill="#9D796C"/>
<path fill-rule="evenodd" clip-rule="evenodd" d="M183.204 410.773C183.204 410.773 177.474 417.293 178.226 417.882C178.979 418.471 185.876 412.864 185.876 412.864L183.204 410.773Z" fill="#9D796C"/>
<path fill-rule="evenodd" clip-rule="evenodd" d="M197.077 127.826C197.077 127.826 188.551 136.132 189.872 137.058C191.193 137.985 201.764 131.115 201.764 131.115L197.077 127.826Z" fill="#9D796C"/>
<path fill-rule="evenodd" clip-rule="evenodd" d="M192.636 526.472C192.636 526.472 187.507 536.084 188.182 536.475C188.858 536.865 195.033 527.858 195.033 527.858L192.636 526.472Z" fill="#9D796C"/>
<path fill-rule="evenodd" clip-rule="evenodd" d="M195.636 251.472C195.636 251.472 190.507 261.084 191.182 261.475C191.858 261.865 198.033 252.858 198.033 252.858L195.636 251.472Z" fill="#9D796C"/>
<path fill-rule="evenodd" clip-rule="evenodd" d="M209.349 471.654C209.349 471.654 214.111 481.453 214.824 481.136C215.537 480.819 211.879 470.529 211.879 470.529L209.349 471.654Z" fill="#9D796C"/>
<path fill-rule="evenodd" clip-rule="evenodd" d="M215.317 199.334C215.317 199.334 220.079 209.133 220.792 208.816C221.505 208.499 217.847 198.209 217.847 198.209L215.317 199.334Z" fill="#9D796C"/>
<path fill-rule="evenodd" clip-rule="evenodd" d="M203.367 593.103C203.367 593.103 200.692 599.712 201.367 600.103C202.042 600.493 205.367 595.103 205.367 595.103L203.367 593.103Z" fill="#9D796C"/>
<path fill-rule="evenodd" clip-rule="evenodd" d="M201.367 448.103C201.367 448.103 198.692 454.712 199.367 455.103C200.042 455.493 203.367 450.103 203.367 450.103L201.367 448.103Z" fill="#9D796C"/>
<path fill-rule="evenodd" clip-rule="evenodd" d="M207.335 175.783C207.335 175.783 204.659 182.393 205.335 182.783C206.01 183.174 209.335 177.783 209.335 177.783L207.335 175.783Z" fill="#9D796C"/>
<path fill-rule="evenodd" clip-rule="evenodd" d="M229.122 558.339C229.122 558.339 235.582 561.357 236.007 560.703C236.433 560.049 231.223 556.446 231.223 556.446L229.122 558.339Z" fill="#9D796C"/>
<path fill-rule="evenodd" clip-rule="evenodd" d="M208.122 315.275C208.122 315.275 214.582 318.293 215.007 317.639C215.433 316.985 210.223 313.382 210.223 313.382L208.122 315.275Z" fill="#9D796C"/>
<path fill-rule="evenodd" clip-rule="evenodd" d="M209.122 419.339C209.122 419.339 215.582 422.357 216.007 421.703C216.433 421.049 211.223 417.446 211.223 417.446L209.122 419.339Z" fill="#9D796C"/>
<path fill-rule="evenodd" clip-rule="evenodd" d="M215.089 147.019C215.089 147.019 221.55 150.037 221.975 149.383C222.4 148.729 217.191 145.127 217.191 145.127L215.089 147.019Z" fill="#9D796C"/>
<path fill-rule="evenodd" clip-rule="evenodd" d="M216.908 527.797C216.908 527.797 223.947 540.366 224.636 540C225.325 539.634 219.354 526.499 219.354 526.499L216.908 527.797Z" fill="#9D796C"/>
<path fill-rule="evenodd" clip-rule="evenodd" d="M196.908 388.797C196.908 388.797 203.947 401.366 204.636 401C205.325 400.634 199.354 387.499 199.354 387.499L196.908 388.797Z" fill="#9D796C"/>
<path fill-rule="evenodd" clip-rule="evenodd" d="M221.636 504.541C221.636 504.541 224.611 511.919 225.16 511.559C225.71 511.2 223.587 503.265 223.587 503.265L221.636 504.541Z" fill="#9D796C"/>
<path fill-rule="evenodd" clip-rule="evenodd" d="M201.636 365.541C201.636 365.541 204.611 372.919 205.16 372.559C205.71 372.2 203.587 364.265 203.587 364.265L201.636 365.541Z" fill="#9D796C"/>
<rect x="0.556229" y="167.994" width="163.503" height="198.114" transform="rotate(-12 0.556229 167.994)" fill="white"/>
<rect x="31.3022" y="204.472" width="18" height="18" transform="rotate(-12 31.3022 204.472)" stroke="#CD718E" stroke-width="4"/>
<rect x="66.0997" y="195.031" width="83" height="22" transform="rotate(-12 66.0997 195.031)" fill="#EFE2E2"/>
<rect x="39.2029" y="241.641" width="18" height="18" transform="rotate(-12 39.2029 241.641)" stroke="#CD718E" stroke-width="4"/>
<rect x="74.0004" y="232.2" width="83" height="22" transform="rotate(-12 74.0004 232.2)" fill="#EFE2E2"/>
<rect x="47.1035" y="278.811" width="18" height="18" transform="rotate(-12 47.1035 278.811)" stroke="#CD718E" stroke-width="4"/>
<rect x="81.901" y="269.37" width="83" height="22" transform="rotate(-12 81.901 269.37)" fill="#EFE2E2"/>
<rect x="55.0042" y="315.981" width="18" height="18" transform="rotate(-12 55.0042 315.981)" stroke="#CD718E" stroke-width="4"/>
<rect x="89.8017" y="306.54" width="83" height="22" transform="rotate(-12 89.8017 306.54)" fill="#EFE2E2"/>
<path fill-rule="evenodd" clip-rule="evenodd" d="M589 107C589 107 598.411 231.267 602.89 298.448C603.136 302.143 608 300 611 309C614 318 604.722 320.41 604.977 324C612.626 431.747 589 599 589 599C589 599 653.231 643.832 669 639C682 639 693 628.622 697 635C701 641.378 694 661.565 674.702 654.918C666 661.564 655.357 667.948 632.075 663.16C608.792 658.372 590.778 654.534 582 659C573.222 663.466 563.274 668.769 547.876 661.565C532.478 654.361 537 632.948 552.986 606.221C568.972 579.494 572.501 450.186 568 364.304C563.499 278.422 537 112 537 112L589 107Z" fill="#E1B2A1"/>
<mask id="mask1" mask-type="alpha" maskUnits="userSpaceOnUse" x="510" y="102" width="190" height="569">
<path fill-rule="evenodd" clip-rule="evenodd" d="M589 107C589 107 598.411 231.267 602.89 298.448C603.136 302.143 608 300 611 309C614 318 604.722 320.41 604.977 324C612.626 431.747 589 599 589 599C589 599 653.231 643.832 669 639C682 639 693 628.622 697 635C701 641.378 694 661.565 674.702 654.918C666 661.564 655.357 667.948 632.075 663.16C608.792 658.372 590.778 654.534 582 659C573.222 663.466 563.274 668.769 547.876 661.565C532.478 654.361 537 632.948 552.986 606.221C568.972 579.494 572.501 450.186 568 364.304C563.499 278.422 537 112 537 112L589 107Z" fill="white"/>
</mask>
<g mask="url(#mask1)">
<path fill-rule="evenodd" clip-rule="evenodd" d="M530 90H588C588 90 620 109 595 137C570 165 530 154 530 154V90Z" fill="#CC9B8A"/>
<path fill-rule="evenodd" clip-rule="evenodd" d="M707.77 626C703.77 636 680.77 649 661.77 649C653.77 654 633.77 662 612.77 651C591.77 640 574.702 626 574.702 626C574.702 626 555.702 632 547.702 626C539.702 620 542.702 601 542.702 601C542.702 601 529.572 596.15 528.702 597C515.941 609.469 529.621 622.879 512.77 626C485.77 631 496.77 660 520.77 667C544.77 674 629.77 684 666.77 674C703.77 664 711.77 616 707.77 626Z" fill="#CC9B8A"/>
</g>
<path fill-rule="evenodd" clip-rule="evenodd" d="M599.894 460.594C599.894 460.594 606.406 471.958 605.4 472.539C604.395 473.121 596.325 462.658 596.325 462.658L599.894 460.594Z" fill="#9D796C"/>
<path fill-rule="evenodd" clip-rule="evenodd" d="M595.766 193.134C595.766 193.134 602.278 204.498 601.272 205.079C600.266 205.661 592.197 195.198 592.197 195.198L595.766 193.134Z" fill="#9D796C"/>
<path fill-rule="evenodd" clip-rule="evenodd" d="M572.576 341.29C572.576 341.29 567.631 353.418 566.553 352.983C565.476 352.549 568.753 339.748 568.753 339.748L572.576 341.29Z" fill="#9D796C"/>
<path fill-rule="evenodd" clip-rule="evenodd" d="M585.6 493.751C585.6 493.751 587.881 509.814 586.737 510.017C585.593 510.219 581.54 494.469 581.54 494.469L585.6 493.751Z" fill="#9D796C"/>
<path fill-rule="evenodd" clip-rule="evenodd" d="M560.567 244.108C560.567 244.108 552.721 258.31 551.686 257.783C550.651 257.256 556.892 242.238 556.892 242.238L560.567 244.108Z" fill="#9D796C"/>
<path fill-rule="evenodd" clip-rule="evenodd" d="M602.209 362.487C602.209 362.487 611.535 375.764 610.607 376.464C609.68 377.164 598.918 364.971 598.918 364.971L602.209 362.487Z" fill="#9D796C"/>
<path fill-rule="evenodd" clip-rule="evenodd" d="M564.99 577.46C564.99 577.46 558.154 592.175 557.084 591.721C556.015 591.268 561.193 575.851 561.193 575.851L564.99 577.46Z" fill="#9D796C"/>
<path fill-rule="evenodd" clip-rule="evenodd" d="M600 258C600 258 609.084 269.583 608 270C606.916 270.417 595.344 259.505 595.344 259.505L600 258Z" fill="#9D796C"/>
<path fill-rule="evenodd" clip-rule="evenodd" d="M575.245 437.404C575.245 437.404 568.409 452.118 567.339 451.665C566.27 451.212 571.448 435.795 571.448 435.795L575.245 437.404Z" fill="#9D796C"/>
<path fill-rule="evenodd" clip-rule="evenodd" d="M550.295 166.164C550.295 166.164 543.46 180.878 542.39 180.425C541.321 179.972 546.499 164.555 546.499 164.555L550.295 166.164Z" fill="#9D796C"/>
<path fill-rule="evenodd" clip-rule="evenodd" d="M588.18 569.963C588.18 569.963 590.069 580.341 588.916 580.483C587.763 580.625 584.088 570.468 584.088 570.468L588.18 569.963Z" fill="#9D796C"/>
<path fill-rule="evenodd" clip-rule="evenodd" d="M571.955 223.25C571.955 223.25 573.844 233.628 572.691 233.77C571.538 233.913 567.863 223.755 567.863 223.755L571.955 223.25Z" fill="#9D796C"/>
<path fill-rule="evenodd" clip-rule="evenodd" d="M598.435 429.907C598.435 429.907 600.324 440.284 599.171 440.427C598.018 440.569 594.343 430.412 594.343 430.412L598.435 429.907Z" fill="#9D796C"/>
<path fill-rule="evenodd" clip-rule="evenodd" d="M581.021 169.88C581.021 169.88 586.735 174.968 586.14 175.564C585.544 176.16 578.908 171.996 578.908 171.996L581.021 169.88Z" fill="#9D796C"/>
<path fill-rule="evenodd" clip-rule="evenodd" d="M590.77 548.741C590.77 548.741 596.941 554.845 596.231 555.485C595.521 556.125 588.25 551.013 588.25 551.013L590.77 548.741Z" fill="#9D796C"/>
<path fill-rule="evenodd" clip-rule="evenodd" d="M569.253 277.787C569.253 277.787 568.997 286.463 568.045 286.38C567.093 286.298 565.873 277.493 565.873 277.493L569.253 277.787Z" fill="#9D796C"/>
<path fill-rule="evenodd" clip-rule="evenodd" d="M606.157 408.884C606.157 408.884 612.329 414.987 611.619 415.628C610.909 416.268 603.637 411.155 603.637 411.155L606.157 408.884Z" fill="#9D796C"/>
<path fill-rule="evenodd" clip-rule="evenodd" d="M584.464 323.908C584.464 323.908 590.635 330.012 589.925 330.652C589.215 331.292 581.944 326.18 581.944 326.18L584.464 323.908Z" fill="#9D796C"/>
<path fill-rule="evenodd" clip-rule="evenodd" d="M594.508 283.955C594.508 283.955 595.319 293.991 594.453 294.395C593.587 294.8 591.346 284.034 591.346 284.034L594.508 283.955Z" fill="#9D796C"/>
<path fill-rule="evenodd" clip-rule="evenodd" d="M589.755 235.044C589.755 235.044 595.926 241.148 595.216 241.788C594.506 242.429 587.235 237.316 587.235 237.316L589.755 235.044Z" fill="#9D796C"/>
<path fill-rule="evenodd" clip-rule="evenodd" d="M591.964 150.623C591.964 150.623 601.049 158.314 599.796 159.33C598.543 160.347 587.518 154.231 587.518 154.231L591.964 150.623Z" fill="#9D796C"/>
<path fill-rule="evenodd" clip-rule="evenodd" d="M597.687 524.759C597.687 524.759 603.474 533.99 602.827 534.427C602.181 534.863 595.392 526.309 595.392 526.309L597.687 524.759Z" fill="#9D796C"/>
<path fill-rule="evenodd" clip-rule="evenodd" d="M607.329 315.717C607.329 315.717 613.115 324.948 612.469 325.384C611.823 325.821 605.034 317.266 605.034 317.266L607.329 315.717Z" fill="#9D796C"/>
<path fill-rule="evenodd" clip-rule="evenodd" d="M579.19 471.24C579.19 471.24 575.123 481.348 574.39 481.081C573.657 480.815 576.587 470.295 576.587 470.295L579.19 471.24Z" fill="#9D796C"/>
<path fill-rule="evenodd" clip-rule="evenodd" d="M554.24 200C554.24 200 550.174 210.108 549.441 209.841C548.707 209.575 551.638 199.055 551.638 199.055L554.24 200Z" fill="#9D796C"/>
<path fill-rule="evenodd" clip-rule="evenodd" d="M580.629 593.976C580.629 593.976 583.759 600.383 583.113 600.82C582.466 601.256 578.774 596.111 578.774 596.111L580.629 593.976Z" fill="#9D796C"/>
<path fill-rule="evenodd" clip-rule="evenodd" d="M585.51 447.19C585.51 447.19 588.64 453.597 587.993 454.033C587.347 454.47 583.654 449.325 583.654 449.325L585.51 447.19Z" fill="#9D796C"/>
<path fill-rule="evenodd" clip-rule="evenodd" d="M560.561 175.95C560.561 175.95 563.69 182.357 563.044 182.793C562.398 183.23 558.705 178.085 558.705 178.085L560.561 175.95Z" fill="#9D796C"/>
<path fill-rule="evenodd" clip-rule="evenodd" d="M566.513 559.094C566.513 559.094 560.278 562.554 559.809 561.932C559.339 561.309 564.284 557.352 564.284 557.352L566.513 559.094Z" fill="#9D796C"/>
<path fill-rule="evenodd" clip-rule="evenodd" d="M569.506 315.157C569.506 315.157 563.272 318.618 562.802 317.995C562.332 317.372 567.277 313.416 567.277 313.416L569.506 315.157Z" fill="#9D796C"/>
<path fill-rule="evenodd" clip-rule="evenodd" d="M572.768 415.037C572.768 415.037 566.534 418.498 566.064 417.875C565.594 417.253 570.539 413.296 570.539 413.296L572.768 415.037Z" fill="#9D796C"/>
<path fill-rule="evenodd" clip-rule="evenodd" d="M570.336 148.803C570.336 148.803 566.561 154.852 565.848 154.535C565.135 154.219 567.542 148.36 567.542 148.36L570.336 148.803Z" fill="#9D796C"/>
<path fill-rule="evenodd" clip-rule="evenodd" d="M575.565 527.774C575.565 527.774 569.421 540.803 568.708 540.486C567.995 540.17 573.035 526.65 573.035 526.65L575.565 527.774Z" fill="#9D796C"/>
<path fill-rule="evenodd" clip-rule="evenodd" d="M585.821 387.718C585.821 387.718 579.676 400.747 578.963 400.43C578.25 400.113 583.291 386.593 583.291 386.593L585.821 387.718Z" fill="#9D796C"/>
<path fill-rule="evenodd" clip-rule="evenodd" d="M569.227 504.905C569.227 504.905 566.774 512.471 566.201 512.151C565.628 511.831 567.192 503.768 567.192 503.768L569.227 504.905Z" fill="#9D796C"/>
<path fill-rule="evenodd" clip-rule="evenodd" d="M570.941 369.777C570.941 369.777 568.489 377.344 567.916 377.024C567.342 376.704 568.907 368.641 568.907 368.641L570.941 369.777Z" fill="#9D796C"/>
<path fill-rule="evenodd" clip-rule="evenodd" d="M104.629 -37.4697C85.7529 -17.8003 78.8159 120.996 76.1302 129.48C73.4446 137.964 65.0444 146.39 74.2844 177.162C83.5245 207.934 102.148 229.945 104.629 226.53C107.11 223.115 81.3825 188.083 85.3134 187.46C89.2442 186.837 110.481 232.689 117.983 235.53C125.484 238.372 90.587 182.595 94.5179 181.973C98.4487 181.35 122.087 236.464 127.983 235.53C133.879 234.596 99.3246 174.16 103.051 178.607C106.777 183.053 128.793 225.654 135.983 226.53C143.173 227.406 104.91 171.261 106.661 156.88C108.413 142.5 117.983 143.53 117.983 143.53C117.983 143.53 117.983 143.53 124.854 142.53C120.983 133.53 105.874 132.828 104.629 124.966C103.384 117.105 117.177 -9.13908 147.983 -31.4697C147.983 -31.4697 123.505 -57.1391 104.629 -37.4697Z" fill="#E1B2A1"/>
<path fill-rule="evenodd" clip-rule="evenodd" d="M195 0L182 116C182 116 218.396 127 249.466 130C280.536 133 319.595 130 319.595 130C319.595 130 340.013 70.5 397.714 72.5C455.415 74.5 472.282 136 472.282 136C472.282 136 503.352 145 535.309 145C567.267 145 601 130 601 130L588 0H195Z" fill="white"/>
<mask id="mask2" mask-type="alpha" maskUnits="userSpaceOnUse" x="182" y="0" width="419" height="145">
<path fill-rule="evenodd" clip-rule="evenodd" d="M195 0L182 116C182 116 218.396 127 249.466 130C280.536 133 319.595 130 319.595 130C319.595 130 340.013 70.5 397.714 72.5C455.415 74.5 472.282 136 472.282 136C472.282 136 503.352 145 535.309 145C567.267 145 601 130 601 130L588 0H195Z" fill="white"/>
</mask>
<g mask="url(#mask2)">
<path fill-rule="evenodd" clip-rule="evenodd" d="M194.541 54C189.541 54 176.541 23 184.541 20C192.541 17 194.541 26 194.541 26C194.541 26 202.541 14 208.541 20C214.541 26 199.541 54 194.541 54Z" fill="#FFB7CD"/>
<path fill-rule="evenodd" clip-rule="evenodd" d="M238.541 99C233.541 99 220.541 68 228.541 65C236.541 62 238.541 71 238.541 71C238.541 71 246.541 59 252.541 65C258.541 71 243.541 99 238.541 99Z" fill="#FFB7CD"/>
<path fill-rule="evenodd" clip-rule="evenodd" d="M266.541 36C261.541 36 248.541 5 256.541 2C264.541 -1 266.541 8 266.541 8C266.541 8 274.541 -4 280.541 2C286.541 8 271.541 36 266.541 36Z" fill="#FFB7CD"/>
<path fill-rule="evenodd" clip-rule="evenodd" d="M338.541 63C333.541 63 320.541 32 328.541 29C336.541 26 338.541 35 338.541 35C338.541 35 346.541 23 352.541 29C358.541 35 343.541 63 338.541 63Z" fill="#FFB7CD"/>
<path fill-rule="evenodd" clip-rule="evenodd" d="M486.541 86C481.541 86 468.541 55 476.541 52C484.541 49 486.541 58 486.541 58C486.541 58 494.541 46 500.541 52C506.541 58 491.541 86 486.541 86Z" fill="#FFB7CD"/>
<path fill-rule="evenodd" clip-rule="evenodd" d="M531.541 18C526.541 18 513.541 -13 521.541 -16C529.541 -19 531.541 -10 531.541 -10C531.541 -10 539.541 -22 545.541 -16C551.541 -10 536.541 18 531.541 18Z" fill="#FFB7CD"/>
<path fill-rule="evenodd" clip-rule="evenodd" d="M609.541 62C604.541 62 591.541 31 599.541 28C607.541 25 609.541 34 609.541 34C609.541 34 617.541 22 623.541 28C629.541 34 614.541 62 609.541 62Z" fill="#FFB7CD"/>
<path fill-rule="evenodd" clip-rule="evenodd" d="M418.081 27.1964C414.859 27.1964 406.483 7.22172 411.637 5.28869C416.792 3.35566 418.081 9.15475 418.081 9.15475C418.081 9.15475 423.235 1.42263 427.102 5.28869C430.968 9.15475 421.302 27.1964 418.081 27.1964Z" fill="#FFB7CD"/>
<path fill-rule="evenodd" clip-rule="evenodd" d="M487.081 144.196C483.859 144.196 475.483 124.222 480.637 122.289C485.792 120.356 487.081 126.155 487.081 126.155C487.081 126.155 492.235 118.423 496.102 122.289C499.968 126.155 490.302 144.196 487.081 144.196Z" fill="#FFB7CD"/>
<path fill-rule="evenodd" clip-rule="evenodd" d="M305.081 132.196C301.859 132.196 293.483 112.222 298.637 110.289C303.792 108.356 305.081 114.155 305.081 114.155C305.081 114.155 310.235 106.423 314.102 110.289C317.968 114.155 308.302 132.196 305.081 132.196Z" fill="#FFB7CD"/>
<path fill-rule="evenodd" clip-rule="evenodd" d="M555.081 120.196C551.859 120.196 543.483 100.222 548.637 98.2887C553.792 96.3557 555.081 102.155 555.081 102.155C555.081 102.155 560.235 94.4226 564.102 98.2887C567.968 102.155 558.302 120.196 555.081 120.196Z" fill="#FFB7CD"/>
<ellipse cx="400.5" cy="138.721" rx="100.5" ry="97.7214" fill="black" fill-opacity="0.1"/>
</g>
<path fill-rule="evenodd" clip-rule="evenodd" d="M762.372 94.4085C761.34 96.9621 758.447 98.201 755.91 97.1758C753.372 96.1505 752.151 93.2494 753.183 90.6959C753.24 90.5542 753.303 90.4165 753.372 90.2831L638.065 43.6963C635.761 42.7653 633.138 43.8786 632.207 46.1829L610.105 100.887C609.174 103.191 610.288 105.814 612.592 106.745L727.898 153.332C727.942 153.188 727.992 153.045 728.049 152.904C729.081 150.35 731.974 149.111 734.512 150.136C737.05 151.162 738.27 154.063 737.239 156.616C737.181 156.758 737.118 156.896 737.05 157.029L772.995 171.552C775.299 172.483 777.922 171.37 778.853 169.065L800.955 114.361C801.886 112.057 800.772 109.434 798.468 108.503L762.523 93.9806C762.48 94.1241 762.429 94.2668 762.372 94.4085Z" fill="#663244"/>
<path fill-rule="evenodd" clip-rule="evenodd" d="M765.315 110.092C764.022 112.523 761.015 113.453 758.599 112.168C756.182 110.883 755.271 107.871 756.564 105.439C756.636 105.304 756.713 105.174 756.795 105.048L646.99 46.6637C644.796 45.4969 642.071 46.33 640.904 48.5244L613.205 100.618C612.039 102.813 612.872 105.537 615.066 106.704L724.871 165.088C724.929 164.95 724.994 164.814 725.066 164.679C726.359 162.247 729.366 161.317 731.782 162.602C734.199 163.887 735.11 166.9 733.817 169.332C733.745 169.467 733.668 169.597 733.586 169.722L767.816 187.923C770.01 189.089 772.735 188.256 773.902 186.062L801.601 133.968C802.767 131.774 801.934 129.049 799.74 127.882L765.51 109.682C765.452 109.82 765.387 109.957 765.315 110.092Z" fill="#7F4156"/>
<path fill-rule="evenodd" clip-rule="evenodd" d="M760.386 142.908C760.334 142.882 760.249 142.848 760.148 142.81C759.784 141.395 759.317 139.84 759.098 138.75C759.002 138.267 758.76 137.951 758.312 137.719L758.259 137.692C758.073 137.597 757.908 137.561 757.829 137.754L756.697 142.045C756.014 141.999 755.463 142.068 755.302 142.361C755.29 142.384 755.279 142.408 755.272 142.432C755.255 142.452 755.24 142.474 755.228 142.496C755.067 142.79 755.316 143.271 755.738 143.794L752.7 147.103C752.58 147.274 752.702 147.388 752.888 147.483C752.888 147.483 752.941 147.51 752.941 147.511C753.389 147.742 753.795 147.758 754.261 147.566C755.317 147.131 756.909 146.637 758.322 146.137C758.411 146.198 758.488 146.247 758.54 146.274L764.353 149.268L757.083 157.539C756.769 158.001 757.029 158.27 757.439 158.481L757.557 158.542C757.822 158.679 758.166 158.619 758.437 158.389L769.908 152.129L775.458 154.988C776.029 155.282 778.509 155.627 778.997 154.739C779.009 154.716 779.02 154.693 779.03 154.67C779.044 154.649 779.058 154.627 779.07 154.605C779.558 153.716 777.875 151.917 777.305 151.624L771.754 148.764L770.692 136.048C770.737 135.702 770.596 135.394 770.33 135.256L770.213 135.196C769.803 134.984 769.427 134.925 769.207 135.437L766.2 145.903L760.386 142.908Z" fill="white"/>
<path fill-rule="evenodd" clip-rule="evenodd" d="M613.942 -97.5486C638.812 -86.3826 697.238 39.7084 702.906 46.5688C708.575 53.4292 719.519 58.0947 722.48 90.0875C725.44 122.08 716.418 149.465 712.838 147.228C709.258 144.991 719.989 102.872 716.111 103.767C712.234 104.662 711.838 148 701 154C695.2 157.211 701.992 143.348 705 128C707.613 114.667 707.324 101.711 705.521 102.127C701.644 103.022 704.828 146 690 153C682.377 156.599 690.601 147.057 694 131C697.213 115.823 694.458 100.085 693 103C690 109 691 145.228 679 150C673.084 152.353 679.461 140.746 682 125C684.611 108.809 683.451 90.3197 682 82C679.138 65.5893 672 57 672 57C672 57 669 56 661 53C668 43 672.791 49.7557 671 42C669.209 34.2443 612.92 -66.5803 575.993 -75.7448C575.993 -75.7448 589.072 -108.715 613.942 -97.5486Z" fill="#E1B2A1"/>
</svg>
