<svg width="53" height="53" viewBox="0 0 53 53" fill="none" xmlns="http://www.w3.org/2000/svg">
<rect width="53" height="53" rx="26.5" fill="#EB722E"/>
<path fill-rule="evenodd" clip-rule="evenodd" d="M35 18.502C35 23.1884 31.1878 27 26.5 27C21.8126 27 18 23.1884 18 18.502C18 13.8136 21.8126 10 26.5 10C31.1882 10 35 13.8132 35 18.502ZM30.0193 18.502C30.0193 16.5611 28.4407 14.9822 26.5 14.9822C24.5609 14.9822 22.9811 16.5607 22.9815 18.502C22.9815 20.4414 24.5605 22.0202 26.5 22.0202C28.4403 22.0202 30.0193 20.4414 30.0193 18.502Z" fill="white"/>
<path fill-rule="evenodd" clip-rule="evenodd" d="M29.9247 33.3682C31.6662 32.9864 33.3282 32.3241 34.8404 31.409C35.9996 30.707 36.3481 29.2333 35.6188 28.1175C35.269 27.5811 34.7119 27.2006 34.0704 27.0598C33.4289 26.919 32.7556 27.0296 32.1988 27.367C28.7305 29.4658 24.2666 29.4643 20.8012 27.367C20.2445 27.0295 19.5712 26.9189 18.9297 27.0597C18.2882 27.2005 17.7312 27.581 17.3815 28.1175C16.652 29.233 16.9999 30.7066 18.1587 31.409C19.6708 32.3237 21.3325 32.9861 23.0736 33.3682L18.3411 37.9243C17.7146 38.5276 17.47 39.4067 17.6995 40.2305C17.929 41.0544 18.5977 41.6978 19.4537 41.9185C20.3097 42.1391 21.223 41.9034 21.8495 41.3001L26.499 36.824L31.1513 41.3005C31.6158 41.7484 32.2464 42 32.9038 42C33.5613 42 34.1918 41.7484 34.6564 41.3005C35.1224 40.8534 35.3843 40.2461 35.3843 39.6128C35.3843 38.9795 35.1224 38.3722 34.6564 37.9251L29.9247 33.3682V33.3682Z" fill="white"/>
</svg>
