<svg width="53" height="53" viewBox="0 0 53 53" fill="none" xmlns="http://www.w3.org/2000/svg">
<rect width="53" height="53" rx="26.5" fill="#00ACED"/>
<path d="M39.7058 19.7851C38.7676 20.1883 37.7752 20.4515 36.7605 20.5663C37.8333 19.9489 38.6422 18.9592 39.0339 17.7851C38.0316 18.3694 36.9383 18.7814 35.7996 19.0038C34.8169 17.9953 33.4655 17.431 32.0574 17.4413C29.2588 17.4196 26.9702 19.6663 26.9402 22.4648C26.9401 22.8462 26.9847 23.2264 27.073 23.5976C22.9504 23.4204 19.0933 21.5145 16.448 18.3476C15.9921 19.1131 15.7518 19.9878 15.7527 20.8788C15.7618 22.5609 16.6161 24.1256 18.0261 25.0429C17.2066 25.0218 16.4036 24.8077 15.6824 24.4179V24.4804C15.7002 26.8964 17.4254 28.962 19.7996 29.4101C19.3591 29.53 18.9045 29.5904 18.448 29.5898C18.1229 29.5889 17.7985 29.5575 17.4792 29.496C18.1703 31.5602 20.0917 32.9612 22.2683 32.9882C20.1102 34.6321 17.402 35.3819 14.7058 35.0819C17.0616 36.5659 19.7888 37.354 22.573 37.3554C30.482 37.4947 37.0093 31.2017 37.1589 23.2929C37.1589 23.2148 37.1589 23.1366 37.1589 23.0585V22.4101C38.158 21.6943 39.0206 20.8053 39.7058 19.7851" fill="#F6F5FA"/>
</svg>
