<svg width="53" height="53" viewBox="0 0 53 53" fill="none" xmlns="http://www.w3.org/2000/svg">
<rect width="53" height="53" rx="26.5" fill="#45668E"/>
<path fill-rule="evenodd" clip-rule="evenodd" d="M23.7289 35.6593H25.4008C25.6843 35.627 25.9513 35.5088 26.1668 35.3204C26.3225 35.101 26.4043 34.8371 26.4003 34.5673C26.4003 34.5673 26.4003 32.2799 27.4091 31.941C28.4178 31.6021 29.7535 34.1531 31.1453 35.1321C31.672 35.5577 32.3407 35.7633 33.0134 35.7063L36.7497 35.6499C36.7497 35.6499 38.7112 35.5275 37.7771 33.9555C37.0355 32.7103 36.0878 31.6023 34.9749 30.6796C32.6305 28.458 32.9387 28.7969 35.7689 24.9845C37.4876 22.65 38.1788 21.2191 37.9639 20.6072C37.7491 19.9954 36.4975 20.1742 36.4975 20.1742H32.2849C32.099 20.1501 31.9102 20.1829 31.7431 20.2684C31.5819 20.3879 31.4534 20.5466 31.3695 20.7296C30.9323 21.884 30.4109 23.0041 29.8096 24.0808C27.9415 27.3284 27.1849 27.4979 26.8766 27.3002C26.1668 26.8295 26.3442 25.4175 26.3442 24.4103C26.3442 21.2662 26.8113 19.9577 25.4102 19.6188C24.7655 19.4609 24.1022 19.3944 23.4393 19.4212C22.2622 19.311 21.0751 19.4358 19.9459 19.7883C19.4695 20.0236 19.0959 20.5602 19.3201 20.5884C19.8007 20.6321 20.2459 20.8615 20.5624 21.2285C20.855 21.8315 20.9991 22.4967 20.9827 23.1677C20.9827 23.1677 21.2349 26.8672 20.4036 27.3284C19.8338 27.6485 19.0586 26.9989 17.3866 24.0526C16.8354 23.0334 16.3487 21.9801 15.9294 20.8991C15.863 20.7209 15.7576 20.56 15.6212 20.4284C15.4263 20.2974 15.207 20.2077 14.9767 20.1648L10.9509 20.1836C10.9509 20.1836 10.3531 20.1836 10.1289 20.466C9.90476 20.7484 10.1289 21.1909 10.1289 21.1909C10.1289 21.1909 13.2674 28.6651 16.8168 32.4305C18.5865 34.4344 21.1048 35.6045 23.7662 35.6593H23.7289Z" fill="#F6F5FA"/>
</svg>
